<svg width="398" height="264" viewBox="0 0 398 264" fill="none" xmlns="http://www.w3.org/2000/svg">
<path opacity="0.1" d="M9.75 157.844C-2.14528 159.697 0.37 161.194 -7 164.879V263.704H395V87.1588C395 87.1588 383.92 111.295 375.235 110.274C361.79 108.692 367.637 96.6327 354.13 97.5438C344.087 98.2213 342.405 130.181 328 129.369C309.803 128.343 316.95 112.454 298.855 110.274C286.147 108.742 286.525 85.4808 273.73 85.1488C253.963 84.636 251.182 65.6176 234.2 64.0438C194.122 60.3298 230.824 0.6161 190.65 3.07381C151.447 5.47211 195.208 101.631 156.145 97.5438C146.307 96.5144 142.159 87.4808 132.36 88.8338C120.258 90.5049 121.258 106.685 109.58 110.274C94.3153 114.965 86.3272 94.1624 70.72 97.5438C55.7692 100.783 56.5376 123.297 41.24 123.339C20.6389 123.396 30.1056 154.672 9.75 157.844Z" fill="url(#paint0_linear_10_214)"/>
<path d="M-7 164.879C0.37 161.194 -2.14528 159.697 9.75 157.844C30.1056 154.672 20.6389 123.396 41.24 123.339C56.5376 123.297 55.7692 100.783 70.72 97.5438C86.3272 94.1624 94.3153 114.965 109.58 110.274C121.258 106.685 120.258 90.5048 132.36 88.8338C142.159 87.4808 146.307 96.5144 156.145 97.5438C195.208 101.631 151.447 5.47211 190.65 3.07381C230.824 0.616099 194.122 60.3298 234.2 64.0438C251.182 65.6176 253.963 84.636 273.73 85.1488C286.525 85.4808 286.147 108.742 298.855 110.274C316.95 112.454 309.803 128.343 328 129.369C342.405 130.181 344.087 98.2213 354.13 97.5438C367.637 96.6327 361.79 108.692 375.235 110.274C383.92 111.295 395 87.1588 395 87.1588" stroke="url(#paint1_linear_10_214)" stroke-width="5" stroke-linecap="round"/>
<path opacity="0.5" d="M215.44 26.5239H275.74V263.704H215.44V26.5239Z" fill="url(#paint2_linear_10_214)"/>
<g filter="url(#filter0_d_10_214)">
<circle cx="245.589" cy="66.7236" r="13.4" fill="white"/>
<circle cx="245.589" cy="66.7236" r="7.9" stroke="url(#paint3_linear_10_214)" stroke-width="11"/>
</g>
<path d="M250.283 97.9185C250.283 98.3873 249.92 98.7154 249.351 98.7154L241.828 98.7213C241.254 98.7213 240.896 98.3931 240.896 97.9185C240.896 97.6724 241.002 97.4732 241.136 97.192L244.711 89.7974C244.968 89.2759 245.232 89.0826 245.589 89.0826C245.947 89.0826 246.211 89.2759 246.463 89.7974L250.043 97.192C250.177 97.4673 250.283 97.6666 250.283 97.9185Z" fill="white"/>
<path d="M250.283 120.299C250.283 120.767 249.92 121.095 249.351 121.095L241.828 121.101C241.254 121.101 240.896 120.773 240.896 120.299C240.896 120.052 241.002 119.853 241.136 119.572L244.711 112.177C244.968 111.656 245.232 111.463 245.589 111.463C245.947 111.463 246.211 111.656 246.463 112.177L250.043 119.572C250.177 119.847 250.283 120.047 250.283 120.299Z" fill="white"/>
<path d="M250.283 142.679C250.283 143.147 249.92 143.475 249.351 143.475L241.828 143.481C241.254 143.481 240.896 143.153 240.896 142.679C240.896 142.432 241.002 142.233 241.136 141.952L244.711 134.557C244.968 134.036 245.232 133.843 245.589 133.843C245.947 133.843 246.211 134.036 246.463 134.557L250.043 141.952C250.177 142.227 250.283 142.427 250.283 142.679Z" fill="white"/>
<path d="M250.283 165.059C250.283 165.527 249.92 165.855 249.351 165.855L241.828 165.861C241.254 165.861 240.896 165.533 240.896 165.059C240.896 164.812 241.002 164.613 241.136 164.332L244.711 156.937C244.968 156.416 245.232 156.223 245.589 156.223C245.947 156.223 246.211 156.416 246.463 156.937L250.043 164.332C250.177 164.607 250.283 164.807 250.283 165.059Z" fill="white"/>
<path d="M250.283 187.439C250.283 187.907 249.92 188.235 249.351 188.235L241.828 188.241C241.254 188.241 240.896 187.913 240.896 187.439C240.896 187.192 241.002 186.993 241.136 186.712L244.711 179.317C244.968 178.796 245.232 178.603 245.589 178.603C245.947 178.603 246.211 178.796 246.463 179.317L250.043 186.712C250.177 186.987 250.283 187.187 250.283 187.439Z" fill="white"/>
<path d="M250.283 209.819C250.283 210.287 249.92 210.615 249.351 210.615L241.828 210.621C241.254 210.621 240.896 210.293 240.896 209.819C240.896 209.572 241.002 209.373 241.136 209.092L244.711 201.697C244.968 201.176 245.232 200.983 245.589 200.983C245.947 200.983 246.211 201.176 246.463 201.697L250.043 209.092C250.177 209.367 250.283 209.567 250.283 209.819Z" fill="white"/>
<path d="M250.283 232.199C250.283 232.667 249.92 232.995 249.351 232.995L241.828 233.001C241.254 233.001 240.896 232.673 240.896 232.199C240.896 231.952 241.002 231.753 241.136 231.472L244.711 224.077C244.968 223.556 245.232 223.363 245.589 223.363C245.947 223.363 246.211 223.556 246.463 224.077L250.043 231.472C250.177 231.747 250.283 231.947 250.283 232.199Z" fill="white"/>
<path opacity="0.5" d="M13.5088 261.141C12.3545 261.141 11.4404 260.572 11.0947 259.652C11.0186 259.441 10.9717 259.271 10.9717 259.037C10.9717 258.639 11.2119 258.392 11.5869 258.392C11.9209 258.392 12.1201 258.562 12.2256 258.949C12.4072 259.605 12.8584 259.969 13.4971 259.969C14.3584 259.969 14.8271 259.447 14.8271 258.486V253.131C14.8271 252.709 15.0732 252.451 15.4834 252.451C15.8877 252.451 16.1396 252.709 16.1396 253.131V258.492C16.1396 260.168 15.1553 261.141 13.5088 261.141ZM17.8623 261.094C17.4697 261.094 17.2061 260.853 17.2061 260.496C17.2061 260.396 17.2295 260.267 17.2881 260.109L19.8604 253.137C20.0303 252.668 20.3174 252.451 20.7803 252.451C21.2373 252.451 21.5186 252.662 21.6943 253.131L24.2725 260.109C24.3311 260.273 24.3545 260.385 24.3545 260.496C24.3545 260.842 24.0791 261.094 23.6982 261.094C23.3467 261.094 23.1533 260.93 23.0361 260.555L22.3916 258.732H19.1572L18.5186 260.549C18.3955 260.93 18.2021 261.094 17.8623 261.094ZM19.4912 257.66H22.0576L20.7861 253.951H20.751L19.4912 257.66ZM26.1123 261.094C25.7139 261.094 25.4736 260.842 25.4736 260.426V253.16C25.4736 252.726 25.7432 252.451 26.1768 252.451C26.4873 252.451 26.6689 252.557 26.8857 252.861L31.0459 258.779H31.0928V253.119C31.0928 252.703 31.3389 252.451 31.7314 252.451C32.1299 252.451 32.3701 252.703 32.3701 253.119V260.414C32.3701 260.842 32.1182 261.094 31.6787 261.094C31.3564 261.094 31.1865 260.994 30.9697 260.689L26.8037 254.771H26.751V260.426C26.751 260.842 26.5107 261.094 26.1123 261.094Z" fill="#454459"/>
<path opacity="0.5" d="M68.1045 261.094C67.6943 261.094 67.4482 260.836 67.4482 260.414V253.224C67.4482 252.803 67.6943 252.545 68.1045 252.545H72.2061C72.5752 252.545 72.8213 252.767 72.8213 253.113C72.8213 253.459 72.5693 253.682 72.2061 253.682H68.7607V256.353H71.8955C72.2471 256.353 72.4873 256.57 72.4873 256.904C72.4873 257.244 72.2471 257.461 71.8955 257.461H68.7607V260.414C68.7607 260.836 68.5088 261.094 68.1045 261.094ZM74.5264 261C74.1162 261 73.8701 260.742 73.8701 260.32V253.224C73.8701 252.803 74.1162 252.545 74.5264 252.545H78.7217C79.085 252.545 79.3311 252.767 79.3311 253.113C79.3311 253.459 79.085 253.682 78.7217 253.682H75.1826V256.148H78.5283C78.874 256.148 79.1143 256.359 79.1143 256.693C79.1143 257.021 78.8799 257.238 78.5283 257.238H75.1826V259.863H78.7217C79.085 259.863 79.3311 260.086 79.3311 260.432C79.3311 260.777 79.085 261 78.7217 261H74.5264ZM81.2412 261C80.8311 261 80.585 260.742 80.585 260.32V253.224C80.585 252.803 80.8311 252.545 81.2412 252.545H83.96C85.46 252.545 86.4443 253.377 86.4443 254.654C86.4443 255.551 85.7822 256.353 84.9385 256.494V256.541C86.0869 256.67 86.8604 257.484 86.8604 258.609C86.8604 260.098 85.7764 261 83.9775 261H81.2412ZM81.8975 256.142H83.3682C84.5049 256.142 85.1318 255.674 85.1318 254.836C85.1318 254.051 84.5928 253.617 83.6436 253.617H81.8975V256.142ZM81.8975 259.928H83.708C84.8916 259.928 85.5186 259.441 85.5186 258.527C85.5186 257.613 84.874 257.144 83.6318 257.144H81.8975V259.928Z" fill="#454459"/>
<path opacity="0.5" d="M122.161 261.094C121.786 261.094 121.563 260.859 121.563 260.467V253.283C121.563 252.773 121.886 252.451 122.407 252.451C122.853 252.451 123.116 252.65 123.315 253.142L125.817 259.219H125.864L128.36 253.142C128.56 252.656 128.829 252.451 129.286 252.451C129.796 252.451 130.118 252.767 130.118 253.283V260.467C130.118 260.859 129.89 261.094 129.521 261.094C129.146 261.094 128.917 260.859 128.917 260.467V254.777H128.876L126.521 260.455C126.38 260.795 126.169 260.947 125.841 260.947C125.513 260.947 125.296 260.795 125.161 260.467L122.8 254.777H122.759V260.467C122.759 260.859 122.536 261.094 122.161 261.094ZM131.894 261.094C131.501 261.094 131.237 260.853 131.237 260.496C131.237 260.396 131.261 260.267 131.319 260.109L133.892 253.137C134.062 252.668 134.349 252.451 134.812 252.451C135.269 252.451 135.55 252.662 135.726 253.131L138.304 260.109C138.362 260.273 138.386 260.385 138.386 260.496C138.386 260.842 138.11 261.094 137.729 261.094C137.378 261.094 137.185 260.93 137.067 260.555L136.423 258.732H133.188L132.55 260.549C132.427 260.93 132.233 261.094 131.894 261.094ZM133.522 257.66H136.089L134.817 253.951H134.782L133.522 257.66ZM140.161 261.111C139.757 261.111 139.505 260.853 139.505 260.432V253.224C139.505 252.803 139.751 252.545 140.161 252.545H142.78C144.521 252.545 145.604 253.553 145.604 255.129C145.604 256.26 145.007 257.174 143.993 257.531L145.423 260.057C145.528 260.238 145.563 260.361 145.563 260.508C145.563 260.853 145.276 261.111 144.896 261.111C144.591 261.111 144.433 261 144.239 260.654L142.651 257.748H140.817V260.432C140.817 260.853 140.56 261.111 140.161 261.111ZM140.817 256.687H142.657C143.671 256.687 144.251 256.131 144.251 255.164C144.251 254.221 143.636 253.646 142.622 253.646H140.817V256.687Z" fill="#454459"/>
<path opacity="0.5" d="M180.786 261.094C180.394 261.094 180.13 260.853 180.13 260.496C180.13 260.396 180.153 260.267 180.212 260.109L182.784 253.137C182.954 252.668 183.241 252.451 183.704 252.451C184.161 252.451 184.442 252.662 184.618 253.131L187.196 260.109C187.255 260.273 187.278 260.385 187.278 260.496C187.278 260.842 187.003 261.094 186.622 261.094C186.271 261.094 186.077 260.93 185.96 260.555L185.315 258.732H182.081L181.442 260.549C181.319 260.93 181.126 261.094 180.786 261.094ZM182.415 257.66H184.981L183.71 253.951H183.675L182.415 257.66ZM189.054 261.094C188.644 261.094 188.397 260.836 188.397 260.414V253.224C188.397 252.803 188.644 252.545 189.054 252.545H191.567C193.208 252.545 194.351 253.676 194.351 255.322C194.351 256.974 193.185 258.111 191.526 258.111H189.71V260.414C189.71 260.836 189.458 261.094 189.054 261.094ZM189.71 257.01H191.216C192.358 257.01 193.009 256.394 193.009 255.328C193.009 254.262 192.358 253.652 191.222 253.652H189.71V257.01ZM196.155 261.111C195.751 261.111 195.499 260.853 195.499 260.432V253.224C195.499 252.803 195.745 252.545 196.155 252.545H198.774C200.515 252.545 201.599 253.553 201.599 255.129C201.599 256.26 201.001 257.174 199.987 257.531L201.417 260.057C201.522 260.238 201.558 260.361 201.558 260.508C201.558 260.853 201.271 261.111 200.89 261.111C200.585 261.111 200.427 261 200.233 260.654L198.646 257.748H196.812V260.432C196.812 260.853 196.554 261.111 196.155 261.111ZM196.812 256.687H198.651C199.665 256.687 200.245 256.131 200.245 255.164C200.245 254.221 199.63 253.646 198.616 253.646H196.812V256.687Z" fill="#454459"/>
<path d="M236.931 261.099C236.503 261.099 236.251 260.836 236.251 260.391V253.406C236.251 252.808 236.62 252.445 237.224 252.445C237.745 252.445 238.044 252.668 238.267 253.23L240.593 258.926H240.64L242.96 253.23C243.183 252.674 243.487 252.445 244.015 252.445C244.618 252.445 244.976 252.803 244.976 253.406V260.391C244.976 260.836 244.724 261.099 244.296 261.099C243.868 261.099 243.616 260.836 243.616 260.391V255H243.575L241.331 260.437C241.185 260.789 240.968 260.947 240.616 260.947C240.271 260.947 240.042 260.789 239.901 260.443L237.657 255H237.616V260.391C237.616 260.836 237.358 261.099 236.931 261.099ZM246.839 261.099C246.376 261.099 246.077 260.83 246.077 260.402C246.077 260.285 246.106 260.121 246.177 259.939L248.632 253.266C248.837 252.703 249.177 252.445 249.728 252.445C250.284 252.445 250.624 252.691 250.835 253.26L253.296 259.939C253.366 260.133 253.396 260.267 253.396 260.402C253.396 260.812 253.079 261.099 252.64 261.099C252.229 261.099 252.001 260.912 251.866 260.461L251.31 258.844H248.151L247.595 260.449C247.454 260.906 247.231 261.099 246.839 261.099ZM248.509 257.648H250.94L249.739 254.039H249.698L248.509 257.648ZM256.489 261.099C256.021 261.099 255.739 260.812 255.739 260.314V257.666L253.097 253.641C252.991 253.471 252.944 253.307 252.944 253.137C252.944 252.738 253.267 252.445 253.694 252.445C254.011 252.445 254.192 252.557 254.386 252.885L256.483 256.224H256.519L258.622 252.885C258.81 252.568 258.997 252.445 259.296 252.445C259.718 252.445 260.04 252.738 260.04 253.131C260.04 253.307 259.993 253.465 259.882 253.641L257.245 257.666V260.314C257.245 260.812 256.964 261.099 256.489 261.099Z" fill="#454459"/>
<path opacity="0.5" d="M296.687 261.141C295.532 261.141 294.618 260.572 294.272 259.652C294.196 259.441 294.149 259.271 294.149 259.037C294.149 258.639 294.39 258.392 294.765 258.392C295.099 258.392 295.298 258.562 295.403 258.949C295.585 259.605 296.036 259.969 296.675 259.969C297.536 259.969 298.005 259.447 298.005 258.486V253.131C298.005 252.709 298.251 252.451 298.661 252.451C299.065 252.451 299.317 252.709 299.317 253.131V258.492C299.317 260.168 298.333 261.141 296.687 261.141ZM304.315 261.141C302.194 261.141 300.894 259.851 300.894 258.029V253.131C300.894 252.709 301.14 252.451 301.55 252.451C301.954 252.451 302.206 252.709 302.206 253.131V257.918C302.206 259.125 302.968 259.974 304.315 259.974C305.663 259.974 306.431 259.125 306.431 257.918V253.131C306.431 252.709 306.677 252.451 307.087 252.451C307.491 252.451 307.737 252.709 307.737 253.131V258.029C307.737 259.851 306.437 261.141 304.315 261.141ZM309.935 261.094C309.536 261.094 309.296 260.842 309.296 260.426V253.16C309.296 252.726 309.565 252.451 309.999 252.451C310.31 252.451 310.491 252.557 310.708 252.861L314.868 258.779H314.915V253.119C314.915 252.703 315.161 252.451 315.554 252.451C315.952 252.451 316.192 252.703 316.192 253.119V260.414C316.192 260.842 315.94 261.094 315.501 261.094C315.179 261.094 315.009 260.994 314.792 260.689L310.626 254.771H310.573V260.426C310.573 260.842 310.333 261.094 309.935 261.094Z" fill="#454459"/>
<path opacity="0.5" d="M353.229 261.141C352.075 261.141 351.161 260.572 350.815 259.652C350.739 259.441 350.692 259.271 350.692 259.037C350.692 258.639 350.933 258.392 351.308 258.392C351.642 258.392 351.841 258.562 351.946 258.949C352.128 259.605 352.579 259.969 353.218 259.969C354.079 259.969 354.548 259.447 354.548 258.486V253.131C354.548 252.709 354.794 252.451 355.204 252.451C355.608 252.451 355.86 252.709 355.86 253.131V258.492C355.86 260.168 354.876 261.141 353.229 261.141ZM360.858 261.141C358.737 261.141 357.437 259.851 357.437 258.029V253.131C357.437 252.709 357.683 252.451 358.093 252.451C358.497 252.451 358.749 252.709 358.749 253.131V257.918C358.749 259.125 359.511 259.974 360.858 259.974C362.206 259.974 362.974 259.125 362.974 257.918V253.131C362.974 252.709 363.22 252.451 363.63 252.451C364.034 252.451 364.28 252.709 364.28 253.131V258.029C364.28 259.851 362.979 261.141 360.858 261.141ZM366.495 261C366.085 261 365.839 260.742 365.839 260.32V253.131C365.839 252.709 366.085 252.451 366.495 252.451C366.899 252.451 367.151 252.709 367.151 253.131V259.863H370.573C370.937 259.863 371.183 260.086 371.183 260.432C371.183 260.777 370.937 261 370.573 261H366.495Z" fill="#454459"/>
<defs>
<filter id="filter0_d_10_214" x="207.189" y="33.3236" width="76.8" height="76.8" filterUnits="userSpaceOnUse" color-interpolation-filters="sRGB">
<feFlood flood-opacity="0" result="BackgroundImageFix"/>
<feColorMatrix in="SourceAlpha" type="matrix" values="0 0 0 0 0 0 0 0 0 0 0 0 0 0 0 0 0 0 127 0" result="hardAlpha"/>
<feOffset dy="5"/>
<feGaussianBlur stdDeviation="12.5"/>
<feColorMatrix type="matrix" values="0 0 0 0 0 0 0 0 0 0 0 0 0 0 0 0 0 0 0.1 0"/>
<feBlend mode="normal" in2="BackgroundImageFix" result="effect1_dropShadow_10_214"/>
<feBlend mode="normal" in="SourceGraphic" in2="effect1_dropShadow_10_214" result="shape"/>
</filter>
<linearGradient id="paint0_linear_10_214" x1="194" y1="3" x2="194" y2="263.704" gradientUnits="userSpaceOnUse">
<stop stop-color="#FE6C6C"/>
<stop offset="1" stop-color="#FE464B" stop-opacity="0"/>
</linearGradient>
<linearGradient id="paint1_linear_10_214" x1="194" y1="3" x2="194" y2="164.879" gradientUnits="userSpaceOnUse">
<stop stop-color="#FE6C6C"/>
<stop offset="1" stop-color="#FE464B"/>
</linearGradient>
<linearGradient id="paint2_linear_10_214" x1="245.59" y1="26.5239" x2="245.59" y2="263.704" gradientUnits="userSpaceOnUse">
<stop offset="0.0104167" stop-color="#FE6C6C" stop-opacity="0"/>
<stop offset="0.28125" stop-color="#FE6C6C"/>
<stop offset="0.666667" stop-color="#FE464B"/>
<stop offset="0.984375" stop-color="#FE464B" stop-opacity="0"/>
</linearGradient>
<linearGradient id="paint3_linear_10_214" x1="245.589" y1="53.3236" x2="245.589" y2="80.1236" gradientUnits="userSpaceOnUse">
<stop stop-color="#FE6C6C"/>
<stop offset="1" stop-color="#FE464B"/>
</linearGradient>
</defs>
</svg>
