<svg width="20" height="20" viewBox="0 0 20 20" fill="none" xmlns="http://www.w3.org/2000/svg">
<path d="M6.99717 9.3628C7.15972 9.33031 7.30271 9.23457 7.39468 9.09666C7.48666 8.95874 7.52007 8.78994 7.48758 8.62738C7.45509 8.46482 7.35936 8.32183 7.22144 8.22986C7.08353 8.13789 6.91472 8.10447 6.75217 8.13696C5.99967 8.28696 5.43133 8.81363 5.12883 9.51946C4.82883 10.2178 4.78467 11.0911 5.01883 12.0261C5.03712 12.1074 5.07146 12.1842 5.11985 12.252C5.16823 12.3198 5.22968 12.3772 5.30059 12.4209C5.37149 12.4646 5.45041 12.4937 5.53272 12.5065C5.61503 12.5193 5.69906 12.5155 5.77988 12.4953C5.86069 12.4752 5.93667 12.4391 6.00333 12.3891C6.06999 12.3392 6.12599 12.2764 6.16805 12.2045C6.21011 12.1326 6.23738 12.053 6.24824 11.9705C6.25911 11.8879 6.25336 11.804 6.23133 11.7236C6.048 10.992 6.108 10.407 6.27717 10.012C6.44383 9.62363 6.70883 9.42113 6.99717 9.3628ZM4.55883 2.84946C4.52322 3.44111 4.60984 4.03375 4.81328 4.59046C5.01672 5.14717 5.33264 5.65602 5.74133 6.0853C4.94747 6.31291 4.23672 6.76603 3.69533 7.38967C3.15393 8.0133 2.80516 8.78066 2.69133 9.59863C2.41704 11.5613 2.81973 13.5589 3.833 15.262L4.12467 15.7536L4.1605 15.8061L5.3405 17.3945C5.59043 17.7311 5.91073 18.0092 6.2791 18.2094C6.64747 18.4097 7.05506 18.5272 7.47349 18.5539C7.89191 18.5805 8.31111 18.5156 8.70191 18.3638C9.09271 18.2119 9.44571 17.9767 9.73633 17.6745C9.77031 17.6391 9.81108 17.611 9.85618 17.5918C9.90129 17.5726 9.94981 17.5627 9.99883 17.5627C10.0479 17.5627 10.0964 17.5726 10.1415 17.5918C10.1866 17.611 10.2274 17.6391 10.2613 17.6745C10.552 17.9767 10.905 18.2119 11.2958 18.3638C11.6866 18.5156 12.1058 18.5805 12.5242 18.5539C12.9426 18.5272 13.3502 18.4097 13.7186 18.2094C14.0869 18.0092 14.4072 17.7311 14.6572 17.3945L15.8372 15.8053L15.8722 15.7528L16.1647 15.2611C17.1786 13.5586 17.5822 11.5613 17.3088 9.59863C17.2282 9.02031 17.0296 8.4647 16.7255 7.96621C16.4214 7.46772 16.0183 7.03695 15.541 6.70057C15.0637 6.3642 14.5224 6.12937 13.9507 6.01064C13.3789 5.89191 12.7889 5.89179 12.2172 6.0103L10.633 6.33863H10.6305C10.6555 5.68863 10.7572 4.98863 10.9563 4.3903C11.198 3.66696 11.533 3.23196 11.9063 3.07696C12.0594 3.01309 12.1808 2.89103 12.2439 2.73764C12.3069 2.58426 12.3065 2.4121 12.2426 2.25905C12.1787 2.10599 12.0567 1.98458 11.9033 1.92153C11.7499 1.85847 11.5777 1.85892 11.4247 1.9228C10.548 2.28863 10.0497 3.15613 9.7705 3.99446L9.73217 4.1128C9.52717 3.71612 9.2621 3.3535 8.94633 3.0378C8.51418 2.60508 7.99502 2.26913 7.42323 2.05219C6.85145 1.83526 6.24009 1.7423 5.62967 1.77946C5.35109 1.7955 5.08809 1.91322 4.89056 2.1103C4.69302 2.30737 4.57469 2.5701 4.558 2.84863M5.80217 3.02113C6.22034 3.00906 6.63656 3.08268 7.02522 3.23746C7.41389 3.39223 7.76677 3.6249 8.06217 3.92113C8.3584 4.21653 8.59106 4.56941 8.74584 4.95807C8.90062 5.34674 8.97424 5.76296 8.96217 6.18113C8.81104 6.18445 8.65985 6.17749 8.50967 6.1603L7.9955 6.05363C7.50715 5.90703 7.06277 5.64161 6.70217 5.28113C6.40593 4.98573 6.17327 4.63285 6.01849 4.24419C5.86372 3.85552 5.7901 3.4393 5.80217 3.02113ZM7.52717 7.23363L7.6955 7.26863C7.8955 7.3253 8.09828 7.36752 8.30383 7.3953L9.11217 7.56196C9.69762 7.68325 10.3017 7.68325 10.8872 7.56196L12.4722 7.23363C12.8765 7.14984 13.2937 7.14993 13.6979 7.2339C14.1022 7.31788 14.4849 7.48394 14.8224 7.72182C15.1598 7.95969 15.4449 8.26431 15.6599 8.61681C15.8748 8.96932 16.0152 9.3622 16.0722 9.77113C16.3062 11.4526 15.9602 13.1635 15.0913 14.622L14.8155 15.0861L13.6547 16.6495C13.513 16.8403 13.3314 16.9979 13.1226 17.1114C12.9138 17.2249 12.6827 17.2915 12.4456 17.3066C12.2084 17.3217 11.9708 17.2849 11.7492 17.1987C11.5277 17.1126 11.3277 16.9792 11.163 16.8078C11.0125 16.6511 10.8318 16.5265 10.6319 16.4413C10.432 16.3562 10.217 16.3123 9.99967 16.3123C9.78238 16.3123 9.56734 16.3562 9.36743 16.4413C9.16753 16.5265 8.98688 16.6511 8.83633 16.8078C8.67165 16.9792 8.47159 17.1126 8.25009 17.1987C8.02858 17.2849 7.79096 17.3217 7.55377 17.3066C7.31659 17.2915 7.08554 17.2249 6.87672 17.1114C6.6679 16.9979 6.48633 16.8403 6.34467 16.6495L5.18383 15.0861L4.908 14.622C4.0394 13.1634 3.69374 11.4525 3.928 9.77113C3.985 9.36228 4.12531 8.96948 4.34024 8.61705C4.55516 8.26461 4.84014 7.96004 5.17752 7.72217C5.5149 7.48431 5.89751 7.31822 6.30167 7.23419C6.70583 7.15016 7.12293 7.14997 7.52717 7.23363Z" fill="#004183"/>
</svg>
