<svg width="38" height="36" viewBox="0 0 38 36" fill="none" xmlns="http://www.w3.org/2000/svg">
<path d="M3.01562 16.1131C3.01562 16.3893 3.23948 16.6131 3.51562 16.6131C3.79177 16.6131 4.01562 16.3893 4.01562 16.1131H3.01562ZM7.79268 11.3888L7.84821 11.8857C8.0072 11.8679 8.14809 11.7752 8.22722 11.6361C8.30636 11.4971 8.31419 11.3286 8.24828 11.1828L7.79268 11.3888ZM24.5 6.00204C24.5 6.27818 24.7239 6.50204 25 6.50204C25.2761 6.50204 25.5 6.27818 25.5 6.00204H24.5ZM15.6687 6.90616C15.8362 7.12572 16.1499 7.16795 16.3695 7.00048C16.589 6.83301 16.6313 6.51926 16.4638 6.29969L15.6687 6.90616ZM37 19.0019C37 18.7258 36.7761 18.5019 36.5 18.5019C36.2239 18.5019 36 18.7258 36 19.0019H37ZM26.3505 30.0624L26.2089 29.5829C26.1289 29.6065 26.0561 29.6497 25.9971 29.7087L26.3505 30.0624ZM26.8255 33.1098L27.3255 33.1094V33.1094L26.8255 33.1098ZM9.40519 33.1098L9.90519 33.1102V33.1102L9.40519 33.1098ZM9.88014 30.0624L10.2335 29.7086L10.2334 29.7086L9.88014 30.0624ZM1.23064 19.8552L0.745552 19.9764H0.745552L1.23064 19.8552ZM28.0833 11.7519C28.0833 11.4758 27.8595 11.2519 27.5833 11.2519C27.3072 11.2519 27.0833 11.4758 27.0833 11.7519H28.0833ZM27.0833 19.4186C27.0833 19.6947 27.3072 19.9186 27.5833 19.9186C27.8595 19.9186 28.0833 19.6947 28.0833 19.4186H27.0833ZM31.4167 16.0852C31.6928 16.0852 31.9167 15.8614 31.9167 15.5852C31.9167 15.3091 31.6928 15.0852 31.4167 15.0852V16.0852ZM23.75 15.0852C23.4739 15.0852 23.25 15.3091 23.25 15.5852C23.25 15.8614 23.4739 16.0852 23.75 16.0852V15.0852ZM3.51562 16.1131H4.01562C4.01562 13.9337 5.68551 12.1274 7.84821 11.8857L7.79268 11.3888L7.73716 10.8919C5.08601 11.1881 3.01562 13.4068 3.01562 16.1131H3.51562ZM7.79268 11.3888L8.24828 11.1828C6.85664 8.10479 9.8214 4.58285 13.1393 5.30089L13.2451 4.8122L13.3508 4.32352C9.28281 3.44314 5.58504 7.71962 7.33708 11.5948L7.79268 11.3888ZM25 6.00204H25.5C25.5 4.10755 24.7598 2.69553 23.6078 1.76002C22.4708 0.83667 20.9712 0.407083 19.4775 0.37674C17.9828 0.346375 16.4491 0.714218 15.2162 1.43938C13.9814 2.1657 13.0155 3.27348 12.7531 4.72315L13.2451 4.8122L13.7371 4.90126C13.9345 3.8108 14.6678 2.92211 15.7232 2.30134C16.7806 1.67941 18.1282 1.34954 19.4572 1.37653C20.7873 1.40355 22.054 1.78641 22.9774 2.53629C23.8858 3.27401 24.5 4.39601 24.5 6.00204H25ZM13.2451 4.8122L13.1393 5.30089C14.1673 5.52335 15.0581 6.10566 15.6687 6.90616L16.0662 6.60293L16.4638 6.29969C15.7115 5.31338 14.6152 4.59715 13.3508 4.32352L13.2451 4.8122ZM4.63501 16.1113V16.6113H18V16.1113V15.6113H4.63501V16.1113ZM36.5 19.0019H36C36 19.0841 35.9546 19.2961 35.8067 19.6578C35.6667 20.0001 35.4568 20.425 35.1836 20.9089C34.6376 21.8757 33.854 23.0506 32.914 24.2275C31.0149 26.6054 28.559 28.8888 26.2089 29.5829L26.3505 30.0624L26.4921 30.5419C29.1539 29.7558 31.7727 27.2589 33.6954 24.8516C34.6663 23.636 35.4803 22.417 36.0543 21.4006C36.341 20.8929 36.5717 20.4289 36.7322 20.0364C36.8848 19.6633 37 19.2947 37 19.0019H36.5ZM26.3505 30.0624L25.9971 29.7087C25.6795 30.0259 25.5582 30.3992 25.5649 30.7751C25.5711 31.1253 25.6879 31.4636 25.8066 31.7473C25.8675 31.8926 25.9347 32.0368 25.997 32.1701C26.0608 32.3067 26.1192 32.4315 26.1705 32.5529C26.277 32.8049 26.3254 32.9815 26.3255 33.1102L26.8255 33.1098L27.3255 33.1094C27.3253 32.7696 27.2074 32.4376 27.0916 32.1635C27.0317 32.0218 26.9648 31.8792 26.903 31.7469C26.8396 31.6112 26.7809 31.4849 26.7291 31.3612C26.6226 31.1066 26.5675 30.9119 26.5647 30.7573C26.5624 30.6284 26.595 30.5248 26.7038 30.4162L26.3505 30.0624ZM26.8255 33.1098L26.3255 33.1101C26.3258 33.4685 26.2414 33.7034 26.1297 33.8655C26.0166 34.0295 25.8484 34.158 25.6177 34.2566C25.133 34.4636 24.4713 34.5002 23.7927 34.5002V35.0002V35.5002C24.4593 35.5002 25.3147 35.4734 26.0105 35.1762C26.3699 35.0227 26.7078 34.7888 26.9531 34.433C27.1997 34.0753 27.3259 33.6329 27.3255 33.1094L26.8255 33.1098ZM23.7927 35.0002V34.5002H12.438V35.0002V35.5002H23.7927V35.0002ZM12.438 35.0002V34.5002C11.7593 34.5002 11.0976 34.4636 10.613 34.2566C10.3822 34.158 10.214 34.0295 10.101 33.8655C9.98927 33.7035 9.90491 33.4685 9.90519 33.1102L9.40519 33.1098L8.90519 33.1094C8.90477 33.6329 9.03099 34.0752 9.27761 34.433C9.52286 34.7888 9.8607 35.0227 10.2202 35.1762C10.9159 35.4734 11.7713 35.5002 12.438 35.5002V35.0002ZM9.40519 33.1098L9.90519 33.1102C9.90529 32.9838 9.95273 32.8057 10.0571 32.5497C10.1072 32.4267 10.1643 32.2998 10.2264 32.1615C10.287 32.0263 10.3523 31.8806 10.4115 31.734C10.527 31.4479 10.6403 31.1099 10.649 30.7648C10.6582 30.3959 10.5472 30.022 10.2335 29.7086L9.88014 30.0624L9.52681 30.4162C9.61966 30.5089 9.65268 30.6043 9.64927 30.7397C9.64526 30.8989 9.58905 31.1 9.48426 31.3596C9.43331 31.4858 9.37574 31.6146 9.31406 31.752C9.2538 31.8862 9.18903 32.03 9.13105 32.1722C9.01922 32.4466 8.90545 32.7772 8.90519 33.1094L9.40519 33.1098ZM9.88014 30.0624L10.2334 29.7086C9.33619 28.8127 8.42337 28.0584 7.55048 27.3549C6.67177 26.6466 5.84413 25.9977 5.08232 25.2914C3.5779 23.8966 2.35724 22.3015 1.71572 19.734L1.23064 19.8552L0.745552 19.9764C1.44561 22.7782 2.79491 24.5344 4.40244 26.0248C5.19661 26.761 6.06046 27.4382 6.92293 28.1334C7.79122 28.8333 8.66929 29.5599 9.52685 30.4162L9.88014 30.0624ZM1.23064 19.8552L1.71572 19.734C1.33911 18.2267 1.49989 17.5475 1.85506 17.1984C2.04544 17.0113 2.34587 16.859 2.81624 16.7569C3.28651 16.6548 3.8867 16.6113 4.63501 16.6113V16.1113V15.6113C3.85922 15.6113 3.17675 15.6553 2.60409 15.7796C2.03154 15.9039 1.52879 16.1169 1.15404 16.4853C0.378942 17.2472 0.36164 18.44 0.745552 19.9764L1.23064 19.8552ZM37.1667 15.5852H36.6667C36.6667 20.6018 32.5999 24.6686 27.5833 24.6686V25.1686V25.6686C33.1522 25.6686 37.6667 21.1541 37.6667 15.5852H37.1667ZM27.5833 25.1686V24.6686C22.5667 24.6686 18.5 20.6018 18.5 15.5852H18H17.5C17.5 21.1541 22.0145 25.6686 27.5833 25.6686V25.1686ZM18 15.5852H18.5C18.5 10.5686 22.5667 6.50189 27.5833 6.50189V6.00189V5.50189C22.0145 5.50189 17.5 10.0164 17.5 15.5852H18ZM27.5833 6.00189V6.50189C32.5999 6.50189 36.6667 10.5686 36.6667 15.5852H37.1667H37.6667C37.6667 10.0164 33.1522 5.50189 27.5833 5.50189V6.00189ZM27.5833 11.7519H27.0833V19.4186H27.5833H28.0833V11.7519H27.5833ZM31.4167 15.5852V15.0852H23.75V15.5852V16.0852H31.4167V15.5852Z" fill="black"/>
</svg>
