<svg width="16" height="17" viewBox="0 0 16 17" fill="none" xmlns="http://www.w3.org/2000/svg">
<path d="M9.52725 8.0358C9.52762 7.81457 9.47736 7.59619 9.38032 7.39737C9.28329 7.19856 9.14205 7.02459 8.96741 6.88877C8.92046 6.85225 8.88119 6.80681 8.85184 6.75507C8.82249 6.70333 8.80365 6.64631 8.79639 6.58727C8.78914 6.52823 8.79361 6.46834 8.80955 6.41103C8.82549 6.35372 8.85259 6.30013 8.8893 6.25332C8.926 6.20651 8.97159 6.16741 9.02344 6.13826C9.07529 6.10911 9.13238 6.09048 9.19145 6.08345C9.25052 6.07641 9.31039 6.08111 9.36764 6.09727C9.42488 6.11343 9.47837 6.14074 9.52504 6.17762C9.80775 6.39774 10.0363 6.67963 10.1933 7.0017C10.3503 7.32378 10.4315 7.6775 10.4308 8.0358C10.4308 8.15561 10.3832 8.27051 10.2984 8.35523C10.2137 8.43995 10.0988 8.48755 9.979 8.48755C9.85919 8.48755 9.74428 8.43995 9.65956 8.35523C9.57484 8.27051 9.52725 8.15561 9.52725 8.0358ZM8.12347 5.67558C8.11862 5.67513 8.07494 5.67467 8.06965 5.67467C8.01196 5.67503 7.95493 5.68686 7.90186 5.70946C7.84879 5.73207 7.80074 5.76499 7.76051 5.80633C7.72028 5.84767 7.68867 5.89659 7.66752 5.95026C7.64637 6.00392 7.6361 6.06125 7.6373 6.11893C7.63951 6.23935 7.68807 6.35429 7.77287 6.43983C7.85767 6.52537 7.97218 6.57492 8.09259 6.57818L8.10847 6.57862C8.22689 6.57852 8.34054 6.53191 8.42494 6.44884C8.50933 6.36576 8.55772 6.25286 8.55969 6.13446C8.56166 6.01605 8.51704 5.90161 8.43545 5.81578C8.35386 5.72994 8.24182 5.67961 8.12347 5.67558ZM6.26264 3.86769C6.26342 3.50939 6.18221 3.15566 6.02522 2.83359C5.86824 2.51151 5.63964 2.22963 5.35693 2.00951C5.26258 1.9361 5.14299 1.90307 5.02434 1.91766C4.90569 1.93224 4.79765 1.99325 4.72389 2.08732C4.65012 2.1814 4.61664 2.30086 4.63078 2.41957C4.64491 2.53827 4.70551 2.64654 4.7993 2.72066C4.97393 2.85648 5.11518 3.03045 5.21221 3.22926C5.30925 3.42808 5.35951 3.64646 5.35914 3.86769C5.35914 3.9875 5.40673 4.1024 5.49145 4.18712C5.57617 4.27184 5.69108 4.31944 5.81089 4.31944C5.9307 4.31944 6.04561 4.27184 6.13033 4.18712C6.21505 4.1024 6.26264 3.9875 6.26264 3.86769ZM3.95536 1.50746C3.95051 1.50702 3.90683 1.50655 3.90154 1.50655C3.84385 1.50691 3.78682 1.51874 3.73375 1.54134C3.68068 1.56395 3.63263 1.59687 3.5924 1.63821C3.55217 1.67955 3.52056 1.72847 3.49941 1.78214C3.47826 1.8358 3.46799 1.89314 3.46919 1.9508C3.4714 2.07123 3.51996 2.18617 3.60476 2.27171C3.68956 2.35725 3.80407 2.4068 3.92448 2.41006L3.94036 2.4105C4.05874 2.41033 4.17232 2.3637 4.25667 2.28063C4.34101 2.19756 4.38937 2.08469 4.39133 1.96633C4.3933 1.84796 4.34872 1.73356 4.26718 1.64773C4.18564 1.56191 4.07367 1.51155 3.95536 1.50746ZM13.6954 3.86769C13.6954 3.9875 13.743 4.1024 13.8277 4.18712C13.9124 4.27184 14.0273 4.31944 14.1471 4.31944C14.2669 4.31944 14.3818 4.27184 14.4665 4.18712C14.5513 4.1024 14.5989 3.9875 14.5989 3.86769C14.5996 3.50946 14.5184 3.15582 14.3614 2.83382C14.2044 2.51183 13.9758 2.23001 13.6932 2.00995C13.599 1.936 13.4793 1.9025 13.3604 1.91681C13.2415 1.93112 13.1332 1.99208 13.0592 2.08627C12.9853 2.18045 12.9518 2.30016 12.9661 2.41905C12.9804 2.53794 13.0413 2.64627 13.1355 2.72022C13.3101 2.85622 13.4512 3.0303 13.5482 3.22916C13.6453 3.42802 13.6956 3.64642 13.6954 3.86769ZM12.2761 2.41053C12.3945 2.41045 12.5081 2.36392 12.5925 2.28093C12.6769 2.19795 12.7254 2.08514 12.7275 1.96679C12.7296 1.84844 12.6851 1.734 12.6037 1.6481C12.5222 1.56219 12.4103 1.51169 12.292 1.50746C12.2304 1.50174 12.1682 1.50894 12.1094 1.52859C12.0507 1.54824 11.9967 1.57991 11.9509 1.62158C11.9051 1.66325 11.8684 1.71401 11.8433 1.77062C11.8182 1.82723 11.8051 1.88845 11.805 1.95039C11.8071 2.07075 11.8555 2.18567 11.9401 2.27128C12.0247 2.35689 12.1391 2.4066 12.2594 2.41008L12.2761 2.41053ZM5.41031 10.9506C5.30308 11.0041 5.22148 11.098 5.18343 11.2117C5.14538 11.3253 5.154 11.4494 5.20738 11.5567C5.30785 11.7576 5.35983 11.9793 5.35917 12.2039C5.35917 12.3237 5.40676 12.4386 5.49148 12.5233C5.5762 12.6081 5.6911 12.6557 5.81092 12.6557C5.93073 12.6557 6.04563 12.6081 6.13035 12.5233C6.21507 12.4386 6.26267 12.3237 6.26267 12.2039C6.26361 11.8394 6.17931 11.4797 6.0165 11.1535C5.96289 11.0463 5.86897 10.9648 5.75534 10.9268C5.64172 10.8887 5.51764 10.8973 5.41031 10.9506ZM15.9541 12.2039C15.96 12.7165 15.8597 13.2248 15.6597 13.6967C15.4596 14.1687 15.1641 14.5942 14.7916 14.9464C14.4192 15.2987 13.978 15.5701 13.4956 15.7436C13.0132 15.9171 12.5002 15.9889 11.9887 15.9545C11.4772 15.9202 10.9784 15.7804 10.5236 15.544C10.0687 15.3075 9.6677 14.9796 9.34573 14.5807C9.02375 14.1818 8.78778 13.7206 8.65263 13.2261C8.51749 12.7316 8.4861 12.2145 8.56044 11.7073C8.39794 11.732 8.23398 11.746 8.06965 11.7491C7.9043 11.746 7.73935 11.732 7.57587 11.707C7.69542 12.4958 7.56288 13.3021 7.19717 14.0111C6.83146 14.7201 6.25124 15.2955 5.53924 15.6553C4.82724 16.0151 4.01982 16.141 3.2321 16.0149C2.44437 15.8888 1.71657 15.5172 1.15247 14.9531C0.588358 14.389 0.216746 13.6613 0.0906161 12.8735C-0.0355138 12.0858 0.0902783 11.2784 0.450056 10.5664C0.809833 9.85437 1.38523 9.27412 2.09419 8.90837C2.80316 8.54263 3.60951 8.41006 4.39825 8.52957C4.3734 8.36608 4.35941 8.20113 4.35638 8.0358C4.35946 7.87038 4.37352 7.70536 4.39845 7.54181C4.23394 7.56695 4.06793 7.58106 3.90153 7.58404C3.1665 7.58404 2.44798 7.36608 1.83683 6.95772C1.22568 6.54936 0.749346 5.96894 0.468065 5.28987C0.186783 4.61079 0.113188 3.86356 0.256586 3.14265C0.399984 2.42175 0.753933 1.75956 1.27368 1.23982C1.79342 0.720078 2.45561 0.36613 3.17651 0.222734C3.89742 0.079338 4.64465 0.152935 5.32373 0.434218C6.0028 0.7155 6.58322 1.19184 6.99158 1.80299C7.39994 2.41414 7.61789 3.13266 7.61789 3.86769C7.61431 4.03449 7.59942 4.20086 7.57333 4.36565C8.37203 4.25027 9.18643 4.40318 9.88888 4.80042C10.5913 5.19765 11.1421 5.81675 11.4549 6.56066C11.7076 6.63833 11.9703 6.67872 12.2347 6.68054C12.7724 6.68146 13.2992 6.52828 13.7526 6.23914C14.2061 5.95 14.5672 5.537 14.7932 5.04904C15.0192 4.56107 15.1007 4.01856 15.028 3.48573C14.9553 2.95289 14.7315 2.45203 14.383 2.04244C14.0346 1.63284 13.5761 1.33166 13.0617 1.17453C12.5474 1.01741 11.9989 1.01092 11.481 1.15584C10.9631 1.30076 10.4976 1.59102 10.1396 1.99226C9.7815 2.39351 9.5459 2.88893 9.46063 3.4199C9.45143 3.47863 9.43072 3.53497 9.39969 3.58568C9.36867 3.63639 9.32794 3.68047 9.27984 3.71541C9.23175 3.75035 9.17722 3.77545 9.11941 3.78927C9.06159 3.80309 9.00161 3.80537 8.94291 3.79596C8.88421 3.78656 8.82795 3.76566 8.77734 3.73446C8.72674 3.70326 8.68279 3.66239 8.64801 3.61417C8.61324 3.56595 8.58832 3.51135 8.5747 3.45348C8.56107 3.39562 8.559 3.33563 8.56861 3.27697C8.68119 2.57561 8.99235 1.92119 9.46525 1.39115C9.93814 0.861115 10.553 0.477643 11.237 0.286122C11.921 0.0946005 12.6456 0.103046 13.325 0.310459C14.0044 0.517872 14.6101 0.91557 15.0705 1.45649C15.5309 1.99741 15.8267 2.6589 15.923 3.36269C16.0192 4.06647 15.9117 4.78309 15.6134 5.42774C15.3151 6.07238 14.8383 6.61806 14.2395 7.0002C13.6407 7.38235 12.945 7.58495 12.2347 7.58404C12.0694 7.58097 11.9045 7.56693 11.7411 7.54202C11.7659 7.70551 11.7799 7.87046 11.7829 8.0358C11.7849 8.46184 11.7113 8.88486 11.5654 9.28517C11.5634 9.29069 11.5575 9.29284 11.5553 9.29824C11.5248 9.37121 11.4754 9.43469 11.4121 9.48204C11.396 9.49335 11.3791 9.50351 11.3616 9.51243C11.34 9.52836 11.317 9.54222 11.2928 9.55384C10.6565 9.78074 10.1232 10.229 9.79021 10.8167C9.45723 11.4045 9.34686 12.0924 9.47927 12.7548C9.61168 13.4172 9.97803 14.0098 10.5114 14.4243C11.0447 14.8389 11.7094 15.0476 12.384 15.0125C13.0586 14.9774 13.698 14.7007 14.1853 14.233C14.6727 13.7652 14.9755 13.1378 15.0384 12.4652C15.1013 11.7926 14.92 11.1199 14.5278 10.57C14.1356 10.02 13.5585 9.62959 12.9021 9.47002C12.786 9.44153 12.6859 9.36818 12.6238 9.26602C12.5617 9.16386 12.5426 9.04124 12.5708 8.92505C12.5989 8.80885 12.672 8.70855 12.774 8.64614C12.8759 8.58372 12.9985 8.56429 13.1148 8.5921C13.9254 8.78681 14.6467 9.24927 15.162 9.9047C15.6772 10.5601 15.9563 11.3702 15.9541 12.2039ZM8.83859 10.7282C9.21304 9.86622 9.90071 9.17845 10.7627 8.80388C10.9326 8.24561 10.9167 7.64727 10.7175 7.09878C10.5776 6.70544 10.3521 6.34809 10.0572 6.05259C9.76234 5.75709 9.40546 5.53083 9.01241 5.39016C8.46031 5.19513 7.86082 5.17885 7.29896 5.34365C7.15427 5.68767 6.95837 6.00782 6.7179 6.29323C6.67917 6.33828 6.63194 6.37526 6.57891 6.40205C6.52587 6.42884 6.46808 6.44491 6.40883 6.44934C6.34958 6.45377 6.29004 6.44647 6.23362 6.42787C6.17719 6.40927 6.12498 6.37973 6.07998 6.34094C6.03498 6.30214 5.99807 6.25486 5.97136 6.20179C5.94465 6.14871 5.92867 6.0909 5.92433 6.03164C5.91998 5.97239 5.92736 5.91286 5.94604 5.85646C5.96473 5.80006 5.99435 5.7479 6.03321 5.70295C6.47721 5.18609 6.71799 4.52534 6.7106 3.84399C6.70322 3.16265 6.44819 2.50727 5.99309 2.00014C5.53799 1.49302 4.91393 1.16881 4.23735 1.08801C3.56078 1.00721 2.87792 1.17534 2.31619 1.56103C1.75447 1.94671 1.35227 2.52361 1.18465 3.18405C1.01702 3.84449 1.09542 4.54337 1.40522 5.15025C1.71502 5.75714 2.23505 6.23057 2.86827 6.4822C3.50148 6.73384 4.20463 6.74648 4.84648 6.51778C4.86498 6.51388 4.88371 6.51123 4.90256 6.50984C4.93556 6.5011 4.96947 6.49628 5.00359 6.49551C5.0304 6.49714 5.057 6.50124 5.08306 6.50775C5.10696 6.50938 5.13068 6.51303 5.15397 6.51866C5.16169 6.52153 5.16662 6.52787 5.17416 6.53112C5.22465 6.5596 5.27273 6.59215 5.31792 6.62846C5.33504 6.64834 5.35041 6.66967 5.36385 6.69221C5.38301 6.71743 5.39942 6.74462 5.41282 6.77332C5.41563 6.78016 5.42143 6.78468 5.42396 6.79175C5.42873 6.81316 5.43185 6.83491 5.43328 6.8568C5.44039 6.88532 5.44456 6.9145 5.44575 6.94387C5.44447 6.97791 5.43923 7.01168 5.43014 7.04451C5.42855 7.06278 5.42575 7.08093 5.42176 7.09883C5.20588 7.70487 5.20588 8.36685 5.42176 8.97289C5.51301 9.23334 5.64267 9.47869 5.80645 9.70081C5.87759 9.79722 5.90752 9.91794 5.88965 10.0364C5.87178 10.1549 5.80757 10.2614 5.71116 10.3326C5.66342 10.3678 5.60921 10.3933 5.55163 10.4075C5.49405 10.4218 5.43422 10.4246 5.37555 10.4157C5.25708 10.3979 5.15055 10.3337 5.07941 10.2373C4.91609 10.0104 4.77932 9.76563 4.67178 9.50764C4.42295 9.43231 4.1646 9.39305 3.90463 9.39105C3.34759 9.39013 2.80282 9.55453 2.33928 9.86343C1.87574 10.1723 1.51429 10.6118 1.3007 11.1263C1.08711 11.6407 1.03098 12.207 1.13943 12.7534C1.24787 13.2998 1.51601 13.8017 1.9099 14.1955C2.30378 14.5894 2.80568 14.8576 3.35206 14.966C3.89843 15.0745 4.4647 15.0183 4.97916 14.8047C5.49361 14.5912 5.93312 14.2297 6.24201 13.7662C6.55091 13.3026 6.71531 12.7578 6.71439 12.2008C6.71642 11.8813 6.6616 11.5641 6.55248 11.2638C6.54764 11.243 6.54436 11.2218 6.54267 11.2005C6.52356 11.14 6.52356 11.0752 6.54267 11.0148C6.54436 10.9934 6.54764 10.9723 6.55248 10.9514C6.55464 10.9456 6.5596 10.9419 6.56197 10.9362C6.57587 10.907 6.5929 10.8794 6.61276 10.8539C6.62617 10.8314 6.6415 10.8101 6.65858 10.7903C6.70494 10.7546 6.75373 10.7222 6.80461 10.6933C6.81045 10.6909 6.81426 10.6859 6.82027 10.6837C6.84166 10.6786 6.86341 10.6752 6.88533 10.6736C6.94387 10.6549 7.00677 10.6547 7.06538 10.6732C7.08805 10.6749 7.11055 10.6784 7.13265 10.6837C7.68278 10.8758 8.27918 10.8914 8.83859 10.7282ZM13.6954 12.2039C13.6954 12.3237 13.743 12.4386 13.8277 12.5234C13.9124 12.6081 14.0273 12.6557 14.1471 12.6557C14.2669 12.6557 14.3818 12.6081 14.4665 12.5234C14.5513 12.4386 14.5989 12.3237 14.5989 12.2039C14.5996 11.8457 14.5184 11.4921 14.3614 11.1701C14.2044 10.8481 13.9758 10.5663 13.6932 10.3462C13.6465 10.3096 13.5931 10.2825 13.536 10.2665C13.4789 10.2505 13.4192 10.246 13.3604 10.2531C13.3015 10.2601 13.2446 10.2788 13.1929 10.3078C13.1413 10.3369 13.0958 10.3759 13.0592 10.4225C13.0226 10.4691 12.9955 10.5225 12.9795 10.5796C12.9636 10.6367 12.959 10.6964 12.9661 10.7553C12.9732 10.8142 12.9918 10.8711 13.0208 10.9227C13.0499 10.9744 13.0889 11.0198 13.1355 11.0565C13.3101 11.1925 13.4512 11.3665 13.5482 11.5654C13.6453 11.7642 13.6956 11.9827 13.6954 12.2039ZM11.805 10.2866C11.8071 10.407 11.8555 10.5219 11.9401 10.6075C12.0247 10.6931 12.1391 10.7428 12.2594 10.7463L12.2761 10.7468C12.3644 10.7431 12.4496 10.7137 12.5214 10.6621C12.5931 10.6105 12.6481 10.5391 12.6797 10.4566C12.7113 10.3742 12.7181 10.2842 12.6992 10.198C12.6803 10.1117 12.6366 10.0328 12.5734 9.97111C12.5102 9.9094 12.4303 9.86753 12.3436 9.85068C12.2569 9.83383 12.1672 9.84273 12.0855 9.87628C12.0038 9.90983 11.9337 9.96656 11.8838 10.0395C11.834 10.1124 11.8066 10.1983 11.805 10.2866Z" fill="#6978FF"/>
</svg>
