<svg width="21" height="20" viewBox="0 0 21 20" fill="none" xmlns="http://www.w3.org/2000/svg">
<path d="M11.7016 1.39465C11.6245 1.33059 11.5332 1.286 11.4353 1.26463C11.3374 1.24326 11.2358 1.24573 11.1391 1.27185C11.0424 1.29797 10.9533 1.34696 10.8795 1.41469C10.8056 1.48243 10.7492 1.56693 10.7148 1.66106L8.99609 6.38059L7.10859 4.55168C7.04521 4.4902 6.96951 4.44285 6.88649 4.41275C6.80347 4.38265 6.71502 4.37048 6.62696 4.37705C6.5389 4.38362 6.45323 4.40878 6.37559 4.45086C6.29796 4.49295 6.23013 4.55101 6.17656 4.62121C4.48438 6.8384 3.625 9.06887 3.625 11.2501C3.625 13.0735 4.34933 14.8222 5.63864 16.1115C6.92795 17.4008 8.67664 18.1251 10.5 18.1251C12.3234 18.1251 14.072 17.4008 15.3614 16.1115C16.6507 14.8222 17.375 13.0735 17.375 11.2501C17.375 6.60559 13.407 2.81262 11.7016 1.39465ZM14.8664 11.9798C14.7043 12.885 14.2688 13.7189 13.6185 14.3691C12.9681 15.0193 12.1342 15.4547 11.2289 15.6165C11.1946 15.6224 11.1598 15.6253 11.125 15.6251C10.9682 15.6251 10.8172 15.5661 10.7018 15.4599C10.5865 15.3537 10.5153 15.2081 10.5023 15.0519C10.4893 14.8956 10.5355 14.7402 10.6318 14.6165C10.728 14.4927 10.8673 14.4096 11.0219 14.3837C12.3164 14.1657 13.4148 13.0673 13.6344 11.7704C13.6621 11.6069 13.7537 11.4612 13.8889 11.3652C14.0242 11.2693 14.192 11.2309 14.3555 11.2587C14.519 11.2865 14.6647 11.378 14.7607 11.5133C14.8566 11.6485 14.895 11.8163 14.8672 11.9798H14.8664Z" fill="#FFCC4D"/>
</svg>
