<svg width="25" height="25" viewBox="0 0 25 25" fill="none" xmlns="http://www.w3.org/2000/svg">
<path fill-rule="evenodd" clip-rule="evenodd" d="M3.1442 8.10009C2.625 9.04862 2.625 10.1928 2.625 12.4813V14.0023C2.625 17.9032 2.625 19.8536 3.79657 21.0655C4.96815 22.2773 6.85376 22.2773 10.625 22.2773H14.625C18.3962 22.2773 20.2819 22.2773 21.4534 21.0655C22.625 19.8536 22.625 17.9032 22.625 14.0023V12.4813C22.625 10.1928 22.625 9.04862 22.1058 8.10009C21.5866 7.15155 20.6381 6.56286 18.741 5.38547L16.741 4.14421C14.7356 2.89963 13.7329 2.27734 12.625 2.27734C11.5171 2.27734 10.5144 2.89963 8.50903 4.14421L6.50903 5.38547C4.61195 6.56286 3.6634 7.15155 3.1442 8.10009ZM9.625 17.5273C9.21079 17.5273 8.875 17.8631 8.875 18.2773C8.875 18.6916 9.21079 19.0273 9.625 19.0273H15.625C16.0392 19.0273 16.375 18.6916 16.375 18.2773C16.375 17.8631 16.0392 17.5273 15.625 17.5273H9.625Z" fill="#1067BF"/>
</svg>
