<svg width="34" height="29" viewBox="0 0 34 29" fill="none" xmlns="http://www.w3.org/2000/svg">
<path d="M17.1455 28.4255L3.47773 14.7577C2.3875 13.6675 1.66068 12.4 1.29727 10.9552C0.942727 9.51045 0.947159 8.07455 1.31057 6.6475C1.67398 5.21159 2.39636 3.96182 3.47773 2.89818C4.58568 1.80795 5.84875 1.08557 7.26693 0.731024C8.69398 0.367614 10.1166 0.367614 11.5348 0.731024C12.9618 1.09443 14.2293 1.81682 15.3373 2.89818L17.1455 4.65318L18.9536 2.89818C20.0705 1.81682 21.338 1.09443 22.7561 0.731024C24.1743 0.367614 25.5925 0.367614 27.0107 0.731024C28.4377 1.08557 29.7052 1.80795 30.8132 2.89818C31.8945 3.96182 32.6169 5.21159 32.9803 6.6475C33.3438 8.07455 33.3438 9.51045 32.9803 10.9552C32.6258 12.4 31.9034 13.6675 30.8132 14.7577L17.1455 28.4255Z" fill="#C61800"/>
</svg>
