<svg width="25" height="25" viewBox="0 0 25 25" fill="none" xmlns="http://www.w3.org/2000/svg">
<path fill-rule="evenodd" clip-rule="evenodd" d="M15.7361 1.86019C17.3928 1.62352 18.875 2.90904 18.875 4.58255V5.95905C20.0645 6.5878 20.875 7.83751 20.875 9.27653V19.2765C20.875 21.3476 19.1961 23.0265 17.125 23.0265H7.125C5.05393 23.0265 3.375 21.3476 3.375 19.2765V5.27653C3.375 5.26723 3.37517 5.25797 3.3755 5.24876C3.37517 5.23437 3.375 5.21993 3.375 5.20546C3.375 4.29921 4.04138 3.53086 4.93853 3.4027L15.7361 1.86019ZM4.875 7.02653V19.2765C4.875 20.5192 5.88236 21.5265 7.125 21.5265H17.125C18.3676 21.5265 19.375 20.5192 19.375 19.2765V9.27653C19.375 8.03389 18.3676 7.02653 17.125 7.02653H4.875ZM5.19607 5.52653H17.375V4.58255C17.375 3.82186 16.7013 3.23753 15.9482 3.34511L5.15066 4.88762C4.99249 4.91022 4.875 5.04568 4.875 5.20546C4.875 5.38278 5.01875 5.52653 5.19607 5.52653ZM7.375 12.2765C7.375 11.8623 7.71079 11.5265 8.125 11.5265H16.125C16.5392 11.5265 16.875 11.8623 16.875 12.2765C16.875 12.6907 16.5392 13.0265 16.125 13.0265H8.125C7.71079 13.0265 7.375 12.6907 7.375 12.2765ZM7.375 15.7765C7.375 15.3623 7.71079 15.0265 8.125 15.0265H13.625C14.0392 15.0265 14.375 15.3623 14.375 15.7765C14.375 16.1907 14.0392 16.5265 13.625 16.5265H8.125C7.71079 16.5265 7.375 16.1907 7.375 15.7765Z" fill="#A6A6A6"/>
</svg>
