<svg width="37" height="19" viewBox="0 0 37 19" fill="none" xmlns="http://www.w3.org/2000/svg">
<rect x="0.131836" y="0.328125" width="16.1705" height="4.85116" rx="1" fill="url(#paint0_linear_1205_6399)"/>
<rect x="4.98242" y="7.60352" width="25.0643" height="2.42558" rx="0.3" fill="url(#paint1_linear_1205_6399)"/>
<rect x="4.98242" y="11.6465" width="25.0643" height="2.42558" rx="0.3" fill="url(#paint2_linear_1205_6399)"/>
<rect x="4.98242" y="15.6914" width="25.0643" height="2.42558" rx="0.3" fill="url(#paint3_linear_1205_6399)"/>
<rect x="18.7275" y="0.328125" width="17.7876" height="4.85116" rx="1" fill="url(#paint4_linear_1205_6399)"/>
<path d="M2.03888 9.98146L0.98779 8.92433C0.924643 8.86082 0.924643 8.75784 0.98779 8.69433L1.21647 8.46433C1.27962 8.40081 1.38201 8.40081 1.44516 8.46433L2.15322 9.17645L3.66981 7.65115C3.73296 7.58764 3.83535 7.58764 3.8985 7.65115L4.12718 7.88115C4.19033 7.94466 4.19033 8.04764 4.12718 8.11115L2.26756 9.98147C2.20441 10.045 2.10202 10.045 2.03888 9.98146Z" fill="#14AE5C"/>
<path d="M2.03888 14.0244L0.98779 12.9673C0.924643 12.9038 0.924643 12.8008 0.98779 12.7373L1.21647 12.5073C1.27962 12.4438 1.38201 12.4438 1.44516 12.5073L2.15322 13.2194L3.66981 11.6941C3.73296 11.6306 3.83535 11.6306 3.8985 11.6941L4.12718 11.9241C4.19033 11.9876 4.19033 12.0906 4.12718 12.1541L2.26756 14.0244C2.20441 14.0879 2.10202 14.0879 2.03888 14.0244Z" fill="#14AE5C"/>
<path d="M2.03888 18.0693L0.98779 17.0122C0.924643 16.9487 0.924643 16.8457 0.98779 16.7822L1.21647 16.5522C1.27962 16.4887 1.38201 16.4887 1.44516 16.5522L2.15322 17.2643L3.66981 15.739C3.73296 15.6755 3.83535 15.6755 3.8985 15.739L4.12718 15.969C4.19033 16.0326 4.19033 16.1355 4.12718 16.199L2.26756 18.0694C2.20441 18.1329 2.10202 18.1329 2.03888 18.0693Z" fill="#14AE5C"/>
<defs>
<linearGradient id="paint0_linear_1205_6399" x1="0.131836" y1="3.15797" x2="18.2048" y2="3.15797" gradientUnits="userSpaceOnUse">
<stop stop-color="#595959"/>
<stop offset="0.530773" stop-color="#F0F0F0"/>
</linearGradient>
<linearGradient id="paint1_linear_1205_6399" x1="4.98242" y1="9.01844" x2="32.9955" y2="9.01844" gradientUnits="userSpaceOnUse">
<stop stop-color="#C8C8C8"/>
<stop offset="0.530773" stop-color="#FBFBFB"/>
</linearGradient>
<linearGradient id="paint2_linear_1205_6399" x1="4.98242" y1="13.0614" x2="32.9955" y2="13.0614" gradientUnits="userSpaceOnUse">
<stop stop-color="#C8C8C8"/>
<stop offset="0.530773" stop-color="#FBFBFB"/>
</linearGradient>
<linearGradient id="paint3_linear_1205_6399" x1="4.98242" y1="17.1063" x2="32.9955" y2="17.1063" gradientUnits="userSpaceOnUse">
<stop stop-color="#C8C8C8"/>
<stop offset="0.530773" stop-color="#FBFBFB"/>
</linearGradient>
<linearGradient id="paint4_linear_1205_6399" x1="18.7275" y1="3.15797" x2="38.6078" y2="3.15797" gradientUnits="userSpaceOnUse">
<stop stop-color="#595959"/>
<stop offset="0.530773" stop-color="#F0F0F0"/>
</linearGradient>
</defs>
</svg>
