<svg width="10" height="10" viewBox="0 0 10 10" fill="none" xmlns="http://www.w3.org/2000/svg">
<path d="M3.77835 9.457C3.6903 9.45744 3.60421 9.43101 3.53158 9.38122C3.45895 9.33143 3.40324 9.26066 3.37191 9.17837L2.67813 7.37427C2.66408 7.33791 2.64258 7.3049 2.61502 7.27734C2.58746 7.24978 2.55445 7.22828 2.51809 7.21423L0.713469 6.51993C0.631265 6.48838 0.560559 6.43265 0.510684 6.36008C0.46081 6.28752 0.43411 6.20154 0.43411 6.11349C0.43411 6.02544 0.46081 5.93945 0.510684 5.86689C0.560559 5.79433 0.631265 5.73859 0.713469 5.70704L2.51757 5.01326C2.55393 4.99921 2.58694 4.97772 2.6145 4.95016C2.64206 4.9226 2.66356 4.88958 2.67761 4.85323L3.37191 3.0486C3.40346 2.9664 3.45919 2.89569 3.53176 2.84582C3.60432 2.79594 3.6903 2.76924 3.77835 2.76924C3.86641 2.76924 3.95239 2.79594 4.02495 2.84582C4.09751 2.89569 4.15325 2.9664 4.1848 3.0486L4.87858 4.8527C4.89263 4.88906 4.91412 4.92207 4.94168 4.94963C4.96924 4.97719 5.00226 4.99869 5.03861 5.01274L6.83227 5.70286C6.91782 5.73457 6.99152 5.79188 7.04334 5.86697C7.09516 5.94207 7.12258 6.03131 7.12187 6.12254C7.12054 6.20906 7.09327 6.29319 7.0436 6.36404C6.99392 6.43489 6.92412 6.48919 6.84324 6.51993L5.03914 7.21371C5.00278 7.22776 4.96977 7.24926 4.94221 7.27682C4.91465 7.30438 4.89315 7.33739 4.8791 7.37375L4.1848 9.17837C4.15346 9.26066 4.09776 9.33143 4.02513 9.38122C3.9525 9.43101 3.86641 9.45744 3.77835 9.457Z" fill="white"/>
<path d="M1.68866 3.60585C1.63704 3.60585 1.58663 3.59021 1.54407 3.56099C1.50151 3.53177 1.46881 3.49034 1.45026 3.44216L1.15666 2.67872C1.15029 2.66203 1.14047 2.64687 1.12784 2.63423C1.1152 2.6216 1.10004 2.61178 1.08334 2.60541L0.31991 2.31181C0.271739 2.29326 0.230317 2.26055 0.201102 2.21799C0.171888 2.17544 0.15625 2.12503 0.15625 2.07341C0.15625 2.02179 0.171888 1.97138 0.201102 1.92883C0.230317 1.88627 0.271739 1.85356 0.31991 1.83501L1.08334 1.54141C1.10002 1.53502 1.11517 1.52519 1.1278 1.51255C1.14043 1.49992 1.15027 1.48478 1.15666 1.4681L1.44765 0.711452C1.46406 0.666907 1.4923 0.627676 1.52933 0.597976C1.56636 0.568276 1.61079 0.549229 1.65784 0.542883C1.71432 0.536017 1.77148 0.548203 1.82025 0.577509C1.86902 0.606815 1.90661 0.651564 1.92706 0.70466L2.22066 1.4681C2.22705 1.48478 2.23688 1.49992 2.24952 1.51255C2.26215 1.52519 2.27729 1.53502 2.29397 1.54141L3.05741 1.83501C3.10558 1.85356 3.147 1.88627 3.17622 1.92883C3.20543 1.97138 3.22107 2.02179 3.22107 2.07341C3.22107 2.12503 3.20543 2.17544 3.17622 2.21799C3.147 2.26055 3.10558 2.29326 3.05741 2.31181L2.29397 2.60541C2.27728 2.61178 2.26212 2.6216 2.24948 2.63423C2.23685 2.64687 2.22702 2.66203 2.22066 2.67872L1.92706 3.44216C1.90851 3.49034 1.87581 3.53177 1.83325 3.56099C1.79069 3.59021 1.74028 3.60585 1.68866 3.60585Z" fill="white"/>
<path d="M7.12187 4.99898C7.06555 4.99897 7.01056 4.98188 6.96415 4.94999C6.91773 4.91809 6.88208 4.87288 6.86187 4.82031L6.46413 3.78644C6.45714 3.76822 6.44639 3.75167 6.43259 3.73787C6.41879 3.72408 6.40225 3.71333 6.38403 3.70633L5.35015 3.30859C5.29763 3.28835 5.25246 3.25268 5.22061 3.20627C5.18876 3.15986 5.17171 3.10489 5.17171 3.0486C5.17171 2.99231 5.18876 2.93734 5.22061 2.89093C5.25246 2.84452 5.29763 2.80885 5.35015 2.78861L6.38403 2.39087C6.40225 2.38387 6.41879 2.37313 6.43259 2.35933C6.44639 2.34553 6.45714 2.32898 6.46413 2.31076L6.85891 1.2842C6.87693 1.23566 6.90778 1.19291 6.94816 1.16049C6.98855 1.12808 7.03696 1.10722 7.08826 1.10013C7.14989 1.09267 7.21225 1.10601 7.26545 1.13803C7.31864 1.17006 7.35961 1.21893 7.38186 1.27689L7.7796 2.31076C7.78659 2.32898 7.79734 2.34553 7.81114 2.35933C7.82494 2.37313 7.84148 2.38387 7.8597 2.39087L8.89358 2.78861C8.9461 2.80885 8.99127 2.84452 9.02312 2.89093C9.05497 2.93734 9.07202 2.99231 9.07202 3.0486C9.07202 3.10489 9.05497 3.15986 9.02312 3.20627C8.99127 3.25268 8.9461 3.28835 8.89358 3.30859L7.8597 3.70633C7.84148 3.71333 7.82494 3.72408 7.81114 3.73787C7.79734 3.75167 7.78659 3.76822 7.7796 3.78644L7.38186 4.82031C7.36165 4.87288 7.326 4.91809 7.27958 4.94999C7.23317 4.98188 7.17818 4.99897 7.12187 4.99898Z" fill="white"/>
</svg>
