<svg width="19" height="28" viewBox="0 0 19 28" fill="none" xmlns="http://www.w3.org/2000/svg">
<path d="M9.33398 0C14.4884 0.000256651 18.6668 4.17866 18.667 9.33301C18.667 11.0336 18.2097 12.6269 17.415 14H17.416L9.33301 28L1.25 14H1.25195C0.4573 12.6269 0 11.0336 0 9.33301C0.000176267 4.1785 4.17934 0 9.33398 0Z" fill="#73A7E0"/>
<g clip-path="url(#clip0_2047_304)">
<path d="M12.6466 9.78205C12.6466 11.6613 11.1231 13.1848 9.24378 13.1848C7.36445 13.1848 5.84094 11.6613 5.84094 9.78205C5.84094 7.90275 7.36445 6.37927 9.24378 6.37927" stroke="white" stroke-width="0.83" stroke-linecap="round"/>
<path d="M10.6049 3.11264C10.1651 3.02336 9.70992 2.9765 9.24379 2.9765C5.48512 2.9765 2.43811 6.02345 2.43811 9.78206C2.43811 13.5406 5.48512 16.5876 9.24379 16.5876C13.0024 16.5876 16.0495 13.5406 16.0495 9.78206C16.0495 9.31594 16.0026 8.86072 15.9134 8.42095" stroke="white" stroke-width="0.83" stroke-linecap="round"/>
<path d="M9.2644 9.75645L12.363 6.65794M14.5117 4.57205L14.1352 3.21969C14.0658 2.9969 13.7977 2.90811 13.617 3.05577C12.6397 3.85444 11.575 4.93022 12.4445 6.62703C14.1963 7.44394 15.1964 6.34232 15.9632 5.4164C16.1158 5.23217 16.0238 4.95523 15.7941 4.8888L14.5117 4.57205Z" stroke="white" stroke-width="0.83" stroke-linecap="round" stroke-linejoin="round"/>
</g>
<defs>
<clipPath id="clip0_2047_304">
<rect width="16.3336" height="16.3333" fill="white" transform="translate(1.07697 1.61539)"/>
</clipPath>
</defs>
</svg>
