<svg width="152" height="66" viewBox="0 0 152 66" fill="none" xmlns="http://www.w3.org/2000/svg">
<path d="M66.6201 20.6199C65.3701 18.4099 63.0902 17.3099 59.7802 17.3099H40.7101L31.0801 50.8899H39.5901L41.5201 44.1699H52.0901C55.4001 44.1699 58.3201 43.0699 60.8301 40.8599C63.3401 38.6499 65.1202 35.7299 66.1702 32.0799L66.9401 29.3899C67.9801 25.7499 67.8801 22.8199 66.6401 20.6099L66.6201 20.6199ZM58.3501 28.8599L57.3401 32.3999C56.8301 34.1599 56.1201 35.4599 55.1901 36.2999C54.2601 37.1399 52.8901 37.5499 51.0701 37.5499H43.4102L47.3102 23.9399H54.9701C56.7901 23.9399 57.9401 24.3199 58.4001 25.0799C58.8701 25.8399 58.8501 27.0999 58.3501 28.8599Z" fill="url(#paint0_linear_60_1580)"/>
<path d="M92.96 17.3099H85.08C83.23 17.3099 81.5599 17.5899 80.0699 18.1599C78.5799 18.7299 77.2801 19.4699 76.1801 20.3999C75.0801 21.3299 74.1601 22.3899 73.4301 23.5799C72.7001 24.7699 72.15 26.0099 71.78 27.2999L66.9399 44.1799H75.45L80.26 27.3899C80.64 26.0799 81.16 25.1499 81.84 24.6099C82.52 24.0699 83.62 23.7999 85.14 23.7999H91.09L92.95 17.3099H92.96Z" fill="url(#paint1_linear_60_1580)"/>
<path d="M110.73 16.86H107.6C103.42 16.86 99.8801 17.97 96.9701 20.2C94.0601 22.42 92.0802 25.4 91.0102 29.13L90.0901 32.35C89.0201 36.08 89.3002 39.06 90.9302 41.28C92.5602 43.5 95.4702 44.62 99.6402 44.62H102.77C106.95 44.62 110.48 43.51 113.38 41.28C116.27 39.06 118.25 36.08 119.32 32.35L120.24 29.13C121.31 25.4 121.04 22.42 119.42 20.2C117.8 17.98 114.91 16.86 110.73 16.86ZM111.72 28.41L110.4 33.02C109.9 34.78 109.2 36.09 108.31 36.94C107.42 37.79 106.16 38.22 104.52 38.22H101.57C99.9301 38.22 98.9002 37.79 98.4902 36.94C98.0802 36.09 98.1202 34.78 98.6302 33.02L99.9501 28.41C100.45 26.68 101.15 25.39 102.05 24.54C102.95 23.69 104.22 23.26 105.86 23.26H108.81C110.45 23.26 111.47 23.69 111.87 24.54C112.27 25.39 112.22 26.68 111.72 28.41Z" fill="url(#paint2_linear_60_1580)"/>
<path d="M44.38 0.0899658C39.95 0.0899658 35.87 0.789966 32.24 2.16997C28.64 3.53997 25.46 5.37996 22.78 7.62996C20.11 9.87996 17.8499 12.49 16.0699 15.4C14.3299 18.25 13 21.25 12.11 24.33L0.310059 65.5H107.58C112 65.5 116.09 64.8 119.72 63.42C123.32 62.05 126.5 60.21 129.18 57.96C131.85 55.72 134.11 53.1 135.89 50.19C137.64 47.34 138.97 44.33 139.85 41.26L151.65 0.0899658H44.38ZM132.65 39.19C131.95 41.62 130.89 44.01 129.5 46.28C128.14 48.5 126.41 50.5 124.36 52.22C122.32 53.93 119.87 55.34 117.06 56.41C114.29 57.47 111.1 58 107.59 58H10.25L19.3199 26.39C20.0199 23.96 21.07 21.58 22.47 19.3C23.82 17.09 25.55 15.09 27.61 13.36C29.65 11.65 32.11 10.24 34.91 9.16997C37.69 8.10997 40.87 7.57997 44.38 7.57997H141.72L132.65 39.19Z" fill="url(#paint3_linear_60_1580)"/>
<defs>
<linearGradient id="paint0_linear_60_1580" x1="0.310066" y1="32.7899" x2="151.65" y2="32.7899" gradientUnits="userSpaceOnUse">
<stop stop-color="#FF4733"/>
<stop offset="1" stop-color="#F238A7"/>
</linearGradient>
<linearGradient id="paint1_linear_60_1580" x1="0.309891" y1="32.7899" x2="151.65" y2="32.7899" gradientUnits="userSpaceOnUse">
<stop stop-color="#FF4733"/>
<stop offset="1" stop-color="#F238A7"/>
</linearGradient>
<linearGradient id="paint2_linear_60_1580" x1="0.310119" y1="32.79" x2="151.65" y2="32.79" gradientUnits="userSpaceOnUse">
<stop stop-color="#FF4733"/>
<stop offset="1" stop-color="#F238A7"/>
</linearGradient>
<linearGradient id="paint3_linear_60_1580" x1="0.310059" y1="32.79" x2="151.65" y2="32.79" gradientUnits="userSpaceOnUse">
<stop stop-color="#FF4733"/>
<stop offset="1" stop-color="#F238A7"/>
</linearGradient>
</defs>
</svg>
