<svg width="22" height="21" viewBox="0 0 22 21" fill="none" xmlns="http://www.w3.org/2000/svg">
<path d="M21.2281 6.84798C22.0612 9.09262 22.1036 11.5556 21.3481 13.8278C20.5926 16.0999 19.0848 18.0444 17.0752 19.338C15.0656 20.6317 12.6752 21.1967 10.3011 20.9392C7.92709 20.6816 5.71237 19.617 4.02497 17.9223C2.12951 16.0273 1.0303 13.4757 0.953527 10.7924C0.87676 8.10921 1.82828 5.49853 3.61228 3.49764C5.39628 1.49675 7.87704 0.257866 10.5441 0.0359391C13.2111 -0.185988 15.8615 0.625922 17.9498 2.30459L19.8964 0.35104C20.0045 0.242605 20.1329 0.15659 20.2741 0.0979055C20.4154 0.0392211 20.5667 0.00901669 20.7196 0.00901669C20.8725 0.00901669 21.0239 0.0392211 21.1651 0.0979055C21.3064 0.15659 21.4347 0.242605 21.5428 0.35104C21.6509 0.459474 21.7367 0.588205 21.7952 0.729882C21.8537 0.871559 21.8838 1.02341 21.8838 1.17676C21.8838 1.33011 21.8537 1.48195 21.7952 1.62363C21.7367 1.76531 21.6509 1.89404 21.5428 2.00247L12.2454 11.3282C12.1373 11.4367 12.009 11.5227 11.8677 11.5814C11.7265 11.64 11.5751 11.6702 11.4222 11.6702C11.2693 11.6702 11.118 11.64 10.9767 11.5814C10.8355 11.5227 10.7071 11.4367 10.599 11.3282C10.4909 11.2198 10.4052 11.0911 10.3467 10.9494C10.2881 10.8077 10.258 10.6559 10.258 10.5025C10.258 10.3492 10.2881 10.1973 10.3467 10.0556C10.4052 9.91395 10.4909 9.78522 10.599 9.67678L12.9234 7.34535C12.2683 7.03141 11.5318 6.93043 10.8167 7.05651C10.1017 7.18259 9.44368 7.52943 8.93458 8.04864C8.42549 8.56785 8.09069 9.23352 7.9769 9.95276C7.86312 10.672 7.97602 11.4089 8.29986 12.0607C8.6237 12.7125 9.14231 13.2466 9.78334 13.5886C10.4244 13.9305 11.1558 14.0632 11.8756 13.9681C12.5954 13.873 13.2677 13.5548 13.7986 13.0581C14.3295 12.5613 14.6925 11.9107 14.8371 11.1971C14.898 10.894 15.0764 10.6275 15.3331 10.4564C15.5898 10.2852 15.9038 10.2234 16.206 10.2844C16.5082 10.3455 16.7739 10.5244 16.9445 10.782C17.1151 11.0395 17.1768 11.3544 17.1159 11.6575C16.8684 12.8807 16.2359 13.9919 15.3116 14.8275C14.3872 15.6632 13.2199 16.1791 11.9813 16.2994C10.7428 16.4197 9.49842 16.1381 8.43141 15.4959C7.36441 14.8537 6.5311 13.8849 6.05413 12.7321C5.57717 11.5793 5.48174 10.3033 5.7819 9.09203C6.08205 7.88075 6.76193 6.79809 7.72147 6.00341C8.68102 5.20874 9.86955 4.74401 11.1121 4.67762C12.3547 4.61124 13.5857 4.94671 14.624 5.63466L16.2927 3.96671C14.7252 2.79249 12.7884 2.22419 10.8371 2.36595C8.88584 2.50771 7.05085 3.35003 5.66842 4.73856C4.28599 6.12709 3.44871 7.96881 3.31003 9.92622C3.17135 11.8836 3.74055 13.8256 4.91332 15.3963C6.08609 16.9669 7.78388 18.0611 9.69556 18.4782C11.6072 18.8953 13.6047 18.6075 15.322 17.6674C17.0393 16.7273 18.3613 15.198 19.0458 13.3597C19.7303 11.5214 19.7315 9.49722 19.049 7.65815C18.9947 7.51437 18.9692 7.36122 18.9742 7.20754C18.9791 7.05386 19.0143 6.90267 19.0777 6.76269C19.1412 6.62271 19.2316 6.4967 19.3437 6.39191C19.4559 6.28712 19.5877 6.20564 19.7314 6.15214C19.8751 6.09864 20.028 6.07419 20.1811 6.0802C20.3343 6.0862 20.4848 6.12254 20.6239 6.18713C20.763 6.25172 20.888 6.34327 20.9917 6.45652C21.0954 6.56977 21.1757 6.70345 21.2281 6.84798Z" fill="url(#paint0_radial_2748_11993)"/>
<defs>
<radialGradient id="paint0_radial_2748_11993" cx="0" cy="0" r="1" gradientUnits="userSpaceOnUse" gradientTransform="translate(11.4173 10.5) rotate(91.6316) scale(19.35 19.2912)">
<stop stop-color="#1067BF"/>
<stop offset="1" stop-color="#9FCFFF"/>
</radialGradient>
</defs>
</svg>
