<svg width="35" height="34" viewBox="0 0 35 34" fill="none" xmlns="http://www.w3.org/2000/svg">
<g clip-path="url(#clip0_6293_23757)">
<path d="M18.292 1.10287L23.1526 10.8945C23.2303 11.0543 23.3858 11.1676 23.5671 11.1934L34.4334 12.7652C34.8842 12.8322 35.0656 13.3785 34.7391 13.698L26.8731 21.3149C26.7436 21.4385 26.6866 21.6189 26.7177 21.7993L28.5728 32.5598C28.6505 33.0081 28.179 33.3431 27.7748 33.137L18.0589 28.0556C17.8982 27.9732 17.7065 27.9732 17.5459 28.0556L7.82996 33.137C7.42577 33.3483 6.95423 33.0081 7.03196 32.5598L8.88705 21.7993C8.91814 21.6241 8.86114 21.4437 8.73159 21.3149L0.865593 13.6928C0.539138 13.3785 0.720502 12.8271 1.17132 12.7601L12.0376 11.1883C12.2138 11.1625 12.3692 11.0491 12.4521 10.8893L17.3127 1.09771C17.5096 0.695741 18.09 0.695741 18.292 1.10287Z" fill="#F3CC30"/>
<path d="M17.8053 3.36719L13.4733 11.7107C13.2453 12.1487 12.8101 12.4425 12.3178 12.4837L2.91797 13.334L12.8515 13.7979C13.4837 13.8288 14.0589 13.4474 14.2765 12.8599L17.8053 3.36719Z" fill="#F7DB5E"/>
<path d="M7.24437 31.3256L7.03192 32.5624C6.95419 33.0108 7.42574 33.3457 7.82992 33.1396L17.5458 28.0583C17.7065 27.9758 17.8982 27.9758 18.0588 28.0583L27.7747 33.1396C28.1789 33.3509 28.6505 33.0108 28.5727 32.5624L26.7125 21.8019C26.6814 21.6267 26.7384 21.4463 26.8679 21.3175L34.7287 13.6955C35.0552 13.3811 34.8738 12.8297 34.423 12.7627L30.7906 12.2422C24.904 22.745 15.8928 28.2747 7.24437 31.3256Z" fill="#EDBD31"/>
</g>
<defs>
<clipPath id="clip0_6293_23757">
<rect width="34.2" height="32.4" fill="white" transform="translate(0.699219 0.796875)"/>
</clipPath>
</defs>
</svg>
