<svg width="25" height="24" viewBox="0 0 25 24" fill="none" xmlns="http://www.w3.org/2000/svg">
<path fill-rule="evenodd" clip-rule="evenodd" d="M7.8466 4.25547C8.68778 2.47951 10.4964 1.25 12.5938 1.25C14.6911 1.25 16.4997 2.47951 17.3409 4.25547C17.4248 4.25184 17.5091 4.25 17.5938 4.25C20.7694 4.25 23.3438 6.82436 23.3438 10C23.3438 12.1806 22.13 14.0762 20.3437 15.0508L20.3438 18.052C20.3438 18.9505 20.3438 19.6997 20.2638 20.2945C20.1794 20.9223 19.9938 21.4891 19.5383 21.9445C19.0828 22.4 18.516 22.5857 17.8882 22.6701C17.2934 22.7501 16.5442 22.75 15.6457 22.75H9.54176C8.64327 22.75 7.89405 22.7501 7.29927 22.6701C6.67148 22.5857 6.10468 22.4 5.64921 21.9445C5.19374 21.4891 5.00807 20.9223 4.92366 20.2945C4.84369 19.6997 4.84372 18.9505 4.84375 18.052L4.84375 15.0508C3.05746 14.0762 1.84375 12.1806 1.84375 10C1.84375 6.82436 4.41811 4.25 7.59375 4.25C7.67844 4.25 7.76274 4.25184 7.8466 4.25547ZM7.39637 5.7545C5.14079 5.85762 3.34375 7.71895 3.34375 10C3.34375 11.7416 4.39144 13.2402 5.89403 13.8967C6.1672 14.016 6.34375 14.2859 6.34375 14.584V18C6.34375 18.964 6.34534 19.6116 6.41029 20.0946C6.47233 20.5561 6.57955 20.7536 6.70987 20.8839C6.84018 21.0142 7.03768 21.1214 7.49914 21.1835C7.98218 21.2484 8.62974 21.25 9.59375 21.25H15.5938C16.5578 21.25 17.2053 21.2484 17.6884 21.1835C18.1498 21.1214 18.3473 21.0142 18.4776 20.8839C18.608 20.7536 18.7152 20.5561 18.7772 20.0946C18.8422 19.6116 18.8438 18.964 18.8438 18L18.8437 14.584C18.8437 14.2859 19.0203 14.016 19.2935 13.8967C20.7961 13.2402 21.8438 11.7416 21.8438 10C21.8438 7.71895 20.0467 5.85761 17.7911 5.7545C17.8258 5.99825 17.8438 6.24718 17.8438 6.5V7C17.8438 7.41421 17.508 7.75 17.0938 7.75C16.6795 7.75 16.3438 7.41421 16.3438 7V6.5C16.3438 6.07715 16.2741 5.67212 16.1461 5.29486C15.6439 3.81402 14.2421 2.75 12.5938 2.75C10.9454 2.75 9.54356 3.81402 9.04138 5.29486C8.91345 5.67212 8.84375 6.07715 8.84375 6.5V7C8.84375 7.41421 8.50796 7.75 8.09375 7.75C7.67954 7.75 7.34375 7.41421 7.34375 7V6.5C7.34375 6.24717 7.36167 5.99825 7.39637 5.7545ZM8.84375 18C8.84375 17.5858 9.17954 17.25 9.59375 17.25H15.5938C16.008 17.25 16.3438 17.5858 16.3438 18C16.3438 18.4142 16.008 18.75 15.5938 18.75H9.59375C9.17954 18.75 8.84375 18.4142 8.84375 18Z" fill="#A6A6A6"/>
</svg>
