<svg width="486" height="102" viewBox="0 0 486 102" fill="none" xmlns="http://www.w3.org/2000/svg">
<path d="M65.27 21.76L61.37 35.47C61.21 36.04 60.68 36.44 60.09 36.44H38.3C35.23 36.44 32.03 38.93 31.16 42L19.76 82.11C19.6 82.68 19.07 83.08 18.48 83.08H1.32999C0.449994 83.08 -0.190006 82.23 0.0499935 81.38L11.26 41.93C14.69 29.87 27.28 20.07 39.34 20.07H63.99C64.87 20.07 65.51 20.92 65.27 21.77V21.76Z" fill="white"/>
<path d="M272.28 36.22L259.24 82.11C259.08 82.68 258.55 83.08 257.96 83.08H240.81C239.93 83.08 239.29 82.23 239.53 81.38L251.69 38.58C252.05 37.31 251.92 36.23 251.31 35.37C250.69 34.51 249.74 34.07 248.47 34.07H227.8L214.15 82.1C213.99 82.67 213.46 83.07 212.87 83.07H195.72C194.84 83.07 194.2 82.22 194.44 81.37L217.29 0.97C217.45 0.4 217.97 0 218.57 0H235.72C236.6 0 237.24 0.85 237 1.7L232.11 18.89H259.87C265.1 18.89 268.89 20.48 271.13 23.62C273.38 26.77 273.77 31.01 272.28 36.23V36.22Z" fill="white"/>
<path d="M414.36 23.62C412.11 20.49 408.32 18.89 403.09 18.89H366.27C361.01 18.89 356.37 22.32 354.82 27.35L332.35 100.25C332.09 101.11 332.73 101.97 333.62 101.97H352.73C353.33 101.97 353.85 101.57 354.01 101L359.44 81.9H384.01C389.78 81.9 394.82 80.25 399.02 76.99C403.2 73.72 406.16 69.14 407.8 63.38L415.52 36.22C417 31 416.61 26.76 414.37 23.61L414.36 23.62ZM389.03 61.61C388.23 64.42 385.3 66.7 382.49 66.7H363.74L372.68 35.26H392.01C393.28 35.26 394.24 35.69 394.85 36.55C395.47 37.41 395.6 38.48 395.23 39.76L389.02 61.61H389.03Z" fill="white"/>
<path d="M128.05 23.79C125.72 20.54 121.61 18.89 115.83 18.89H92.22C86.44 18.89 81.39 20.54 77.21 23.79C73.03 27.05 70.08 31.63 68.43 37.41L60.38 65.74C58.89 70.98 59.28 75.22 61.52 78.35C63.77 81.49 67.55 83.08 72.79 83.08H112.74C113.34 83.08 113.86 82.68 114.02 82.11L117.42 70.17C117.66 69.32 117.02 68.47 116.14 68.47H84.03C82.75 68.47 81.79 68.04 81.18 67.18C80.56 66.33 80.43 65.25 80.8 63.96L82.25 58.87H121.97C122.57 58.87 123.09 58.47 123.25 57.9L129.08 37.4C130.72 31.62 130.37 27.04 128.04 23.78L128.05 23.79ZM111.96 37.99L110.01 44.86H86.24L88.19 37.99C89.13 34.66 91.4 32.9 94.73 32.9H108.32C111.64 32.9 112.91 34.66 111.96 37.99Z" fill="white"/>
<path d="M193.21 61.02L191.87 65.74C190.38 70.97 187.58 75.22 183.56 78.35C179.53 81.48 174.84 83.08 169.61 83.08H126.88C126 83.08 125.36 82.23 125.6 81.38L128.99 69.44C129.15 68.87 129.68 68.47 130.27 68.47H167.98C169.25 68.47 170.46 68.04 171.56 67.18C172.23 66.66 172.74 65.94 173.06 65.41C173.45 64.76 173.77 64.02 173.96 63.38C174.67 60.9 173.22 58.87 170.74 58.87H148.16C142.93 58.87 139.14 57.28 136.89 54.14C134.65 51 134.26 46.76 135.75 41.53L136.92 37.4C138.41 32.18 141.2 27.94 145.23 24.79C149.27 21.66 153.96 20.06 159.19 20.06H197.87C198.75 20.06 199.39 20.91 199.15 21.76L195.76 33.7C195.6 34.27 195.07 34.67 194.48 34.67H160.8C159.53 34.67 158.32 35.1 157.22 35.96C156.12 36.82 155.37 37.9 155.01 39.18C154.65 40.46 154.78 41.54 155.39 42.39C156 43.25 156.96 43.68 158.23 43.68H180.82C186.04 43.68 189.83 45.27 192.08 48.42C194.32 51.55 194.71 55.79 193.23 61.03L193.21 61.02Z" fill="white"/>
<path d="M477.42 58.88C478.02 58.88 478.54 58.48 478.7 57.91L484.53 37.41C486.17 31.64 485.82 27.06 483.49 23.8C481.15 20.55 477.04 18.89 471.27 18.89H447.65C441.88 18.89 436.83 20.54 432.64 23.8C428.46 27.06 425.51 31.64 423.86 37.41L415.81 65.74C414.32 70.96 414.71 75.21 416.95 78.35C419.2 81.48 422.99 83.08 428.22 83.08H468.16C468.76 83.08 469.28 82.68 469.44 82.11L472.83 70.17C473.07 69.32 472.43 68.47 471.55 68.47H439.45C438.18 68.47 437.22 68.04 436.61 67.18C435.99 66.34 435.86 65.25 436.23 63.96L437.68 58.87H477.41L477.42 58.88ZM443.63 38C444.43 35.19 447.36 32.91 450.17 32.91H463.76C467.09 32.91 468.36 34.67 467.41 38L465.46 44.87H441.68L443.63 38Z" fill="white"/>
<path d="M340.72 23.62C338.47 20.49 334.68 18.89 329.45 18.89H291.87C291.27 18.89 290.75 19.29 290.59 19.86L287.2 31.8C286.96 32.65 287.6 33.5 288.48 33.5H318.22C319.49 33.5 320.45 33.93 321.07 34.79C321.69 35.64 321.81 36.72 321.45 38L320 43.1H295.43C290.21 43.1 285.51 44.69 281.47 47.83C277.44 50.98 274.64 55.22 273.16 60.44L271.65 65.75C270.16 70.98 270.55 75.22 272.79 78.36C275.04 81.49 278.83 83.09 284.06 83.09H327.55C328.15 83.09 328.67 82.69 328.83 82.12L341.87 36.23C343.35 31.01 342.96 26.77 340.73 23.62H340.72ZM313.11 67.3H295.62C294.34 67.3 293.37 66.86 292.76 66C292.15 65.15 292.03 64.07 292.39 62.79L292.72 61.61C293.08 60.34 293.82 59.25 294.92 58.39C296.02 57.53 297.23 57.1 298.51 57.1H316L313.1 67.29L313.11 67.3Z" fill="white"/>
</svg>
