<svg width="24" height="24" viewBox="0 0 24 24" fill="none" xmlns="http://www.w3.org/2000/svg">
<path d="M13 16C13 16.2652 12.8946 16.5196 12.7071 16.7071C12.5196 16.8946 12.2652 17 12 17C11.7348 17 11.4804 16.8946 11.2929 16.7071C11.1054 16.5196 11 16.2652 11 16C11 15.7348 11.1054 15.4804 11.2929 15.2929C11.4804 15.1054 11.7348 15 12 15C12.2652 15 12.5196 15.1054 12.7071 15.2929C12.8946 15.4804 13 15.7348 13 16Z" fill="#CC54CC"/>
<path fill-rule="evenodd" clip-rule="evenodd" d="M20.92 1.40541C21.0379 1.49576 21.1263 1.61907 21.174 1.75971C21.2217 1.90035 21.2266 2.05199 21.188 2.19541L20.193 5.90941L22.089 4.81541C22.1743 4.76539 22.2687 4.73274 22.3667 4.71934C22.4647 4.70594 22.5644 4.71205 22.66 4.73734C22.7556 4.76262 22.8453 4.80656 22.9239 4.86665C23.0025 4.92673 23.0684 5.00176 23.1178 5.08741C23.1673 5.17307 23.1993 5.26767 23.2121 5.36575C23.2248 5.46384 23.218 5.56347 23.1921 5.65893C23.1662 5.75438 23.1217 5.84377 23.0611 5.92194C23.0004 6.00011 22.925 6.06552 22.839 6.11441L19.375 8.11441C19.2465 8.18881 19.0988 8.22338 18.9506 8.21376C18.8025 8.20414 18.6605 8.15076 18.5427 8.06037C18.4249 7.96998 18.3365 7.84666 18.2889 7.70603C18.2412 7.5654 18.2364 7.41379 18.275 7.27041L19.271 3.55541L17.375 4.65041C17.2026 4.74987 16.9978 4.77677 16.8055 4.72519C16.6133 4.67362 16.4495 4.5478 16.35 4.37541C16.2505 4.20302 16.2236 3.99818 16.2752 3.80596C16.3268 3.61373 16.4526 3.44987 16.625 3.35041L20.089 1.35041C20.2176 1.27622 20.3652 1.24184 20.5133 1.25163C20.6615 1.26142 20.8023 1.31494 20.92 1.40541ZM12 2.75041C10.1705 2.75041 8.38213 3.29291 6.86098 4.30932C5.33982 5.32572 4.15423 6.77037 3.45411 8.46059C2.754 10.1508 2.57082 12.0107 2.92774 13.805C3.28465 15.5993 4.16563 17.2475 5.45926 18.5411C6.7529 19.8348 8.40109 20.7158 10.1954 21.0727C11.9897 21.4296 13.8496 21.2464 15.5398 20.5463C17.23 19.8462 18.6747 18.6606 19.6911 17.1394C20.7075 15.6183 21.25 13.8299 21.25 12.0004C21.25 11.8015 21.329 11.6107 21.4697 11.4701C21.6103 11.3294 21.8011 11.2504 22 11.2504C22.1989 11.2504 22.3897 11.3294 22.5303 11.4701C22.671 11.6107 22.75 11.8015 22.75 12.0004C22.75 17.9374 17.937 22.7504 12 22.7504C6.063 22.7504 1.25 17.9374 1.25 12.0004C1.25 6.06341 6.063 1.25041 12 1.25041C12.1989 1.25041 12.3897 1.32943 12.5303 1.47008C12.671 1.61073 12.75 1.8015 12.75 2.00041C12.75 2.19932 12.671 2.39009 12.5303 2.53074C12.3897 2.67139 12.1989 2.75041 12 2.75041ZM13.398 5.12541C13.4472 5.04001 13.5128 4.96515 13.5909 4.9051C13.6691 4.84505 13.7583 4.801 13.8535 4.77546C13.9487 4.74992 14.048 4.74339 14.1457 4.75625C14.2434 4.76911 14.3377 4.80111 14.423 4.85041L16.155 5.85041C16.2835 5.92458 16.3871 6.03519 16.4527 6.16824C16.5183 6.30129 16.543 6.45081 16.5236 6.59789C16.5042 6.74496 16.4417 6.88299 16.3438 6.99451C16.246 7.10603 16.1173 7.18604 15.974 7.22441L14.991 7.48841L15.155 7.58341C15.3259 7.68357 15.4502 7.84725 15.5008 8.03872C15.5514 8.23019 15.5242 8.43391 15.4252 8.60543C15.3262 8.77695 15.1633 8.90233 14.9722 8.95422C14.7811 9.00611 14.5772 8.9803 14.405 8.88241L12.673 7.88241C12.5445 7.80831 12.4409 7.69779 12.3752 7.5648C12.3095 7.43182 12.2848 7.28234 12.304 7.13528C12.3233 6.98822 12.3857 6.85017 12.4834 6.73859C12.5812 6.62701 12.7098 6.54691 12.853 6.50841L13.837 6.24441L13.673 6.15041C13.5876 6.1012 13.5127 6.03565 13.4527 5.95749C13.3926 5.87933 13.3486 5.7901 13.323 5.69491C13.2975 5.59971 13.291 5.50042 13.3038 5.4027C13.3167 5.30498 13.3487 5.21076 13.398 5.12541ZM5.998 10.4424C6.07124 10.3764 6.15678 10.3255 6.24971 10.2926C6.34265 10.2597 6.44116 10.2454 6.53961 10.2506C6.63806 10.2558 6.73452 10.2804 6.82347 10.3229C6.91242 10.3654 6.99212 10.4251 7.058 10.4984C7.522 11.0154 8.023 11.2504 8.5 11.2504C8.977 11.2504 9.478 11.0154 9.942 10.4994C10.0073 10.4244 10.0869 10.3631 10.1761 10.3191C10.2653 10.2751 10.3624 10.2493 10.4617 10.2432C10.5609 10.2371 10.6604 10.2508 10.7544 10.2835C10.8483 10.3162 10.9348 10.3672 11.0088 10.4337C11.0828 10.5002 11.1429 10.5807 11.1855 10.6705C11.2281 10.7604 11.2524 10.8579 11.257 10.9573C11.2615 11.0566 11.2463 11.1559 11.2122 11.2493C11.178 11.3427 11.1256 11.4284 11.058 11.5014C10.388 12.2454 9.51 12.7504 8.5 12.7504C7.49 12.7504 6.611 12.2454 5.942 11.5024C5.87601 11.4292 5.8251 11.3436 5.79219 11.2507C5.75929 11.1578 5.74503 11.0593 5.75023 10.9608C5.75543 10.8623 5.77999 10.7659 5.8225 10.6769C5.86502 10.588 5.92466 10.5083 5.998 10.4424ZM12.998 10.4424C13.0712 10.3764 13.1568 10.3255 13.2497 10.2926C13.3426 10.2597 13.4412 10.2454 13.5396 10.2506C13.6381 10.2558 13.7345 10.2804 13.8235 10.3229C13.9124 10.3654 13.9921 10.4251 14.058 10.4984C14.523 11.0154 15.023 11.2504 15.5 11.2504C15.977 11.2504 16.477 11.0154 16.942 10.4994C17.0073 10.4244 17.0869 10.3631 17.1761 10.3191C17.2653 10.2751 17.3624 10.2493 17.4617 10.2432C17.5609 10.2371 17.6604 10.2508 17.7544 10.2835C17.8483 10.3162 17.9348 10.3672 18.0088 10.4337C18.0828 10.5002 18.1429 10.5807 18.1855 10.6705C18.2281 10.7604 18.2524 10.8579 18.257 10.9573C18.2615 11.0566 18.2463 11.1559 18.2122 11.2493C18.178 11.3427 18.1256 11.4284 18.058 11.5014C17.388 12.2454 16.51 12.7504 15.5 12.7504C14.49 12.7504 13.611 12.2454 12.942 11.5024C12.876 11.4292 12.8251 11.3436 12.7922 11.2507C12.7593 11.1578 12.745 11.0593 12.7502 10.9608C12.7554 10.8623 12.78 10.7659 12.8225 10.6769C12.865 10.588 12.9247 10.5083 12.998 10.4424Z" fill="#CC54CC"/>
</svg>
