<svg width="35" height="34" viewBox="0 0 35 34" fill="none" xmlns="http://www.w3.org/2000/svg">
<path d="M17.6905 1.10287L22.551 10.8945C22.6288 11.0543 22.7842 11.1676 22.9656 11.1934L33.8318 12.7652C34.2827 12.8322 34.464 13.3785 34.1376 13.698L26.2716 21.3149C26.142 21.4385 26.085 21.6189 26.1161 21.7993L27.9712 32.5598C28.0489 33.0081 27.5774 33.3431 27.1732 33.137L17.4573 28.0556C17.2967 27.9732 17.1049 27.9732 16.9443 28.0556L7.22839 33.137C6.82421 33.3483 6.35267 33.0081 6.43039 32.5598L8.28548 21.7993C8.31658 21.6241 8.25957 21.4437 8.13003 21.3149L0.26403 13.6928C-0.0624243 13.3785 0.118939 12.8271 0.569757 12.7601L11.436 11.1883C11.6122 11.1625 11.7677 11.0491 11.8506 10.8893L16.7111 1.09771C16.908 0.695741 17.4884 0.695741 17.6905 1.10287Z" fill="#D9D9D9"/>
</svg>
