<svg width="75" height="75" viewBox="0 0 75 75" fill="none" xmlns="http://www.w3.org/2000/svg">
<mask id="mask0_4867_17178" style="mask-type:alpha" maskUnits="userSpaceOnUse" x="0" y="0" width="75" height="75">
<circle cx="37.5" cy="37.5" r="37.5" fill="#D9D9D9"/>
</mask>
<g mask="url(#mask0_4867_17178)">
<rect x="-19.2578" y="0.429688" width="113.514" height="75" fill="#F0F0F0"/>
<path d="M100.82 62.3867H-19.1797V108.258H100.82V62.3867Z" fill="white"/>
<path opacity="0.28" d="M100.82 65.695H-16.5637C-14.1157 65.695 -11.9077 67.4816 -9.48369 67.7954C-10.3717 68.0852 -11.2597 68.3507 -12.1237 68.6404C-12.4837 68.7612 -12.3877 69.2923 -12.0037 69.2682C-7.80369 69.0267 -3.57969 68.9302 0.572313 69.6303C5.56431 70.4512 10.5323 72.5274 13.9163 76.3179C23.3963 86.8925 38.3003 91.5521 52.4123 92.3729C62.4203 92.9765 72.1643 89.7414 81.5963 86.2406C82.5563 85.8785 83.4203 86.8925 82.9643 87.7858C82.9643 87.8099 82.9403 87.8099 82.9403 87.8341C82.6283 88.4618 83.1563 89.1619 83.8283 89.0171C87.8603 88.1721 91.9643 87.4719 96.0443 88.0755C97.6763 88.3169 99.3323 88.8239 100.82 89.5724V108.235H-19.1797V62.3633H100.82V65.695Z" fill="#D5D7F9"/>
<path d="M100.82 54.0095V64.56H-19.1797V54.0095C-19.1797 52.5851 -19.0357 51.1848 -18.7477 49.8328C-18.6757 49.5189 -18.6037 49.1809 -18.5077 48.8671C-18.0997 47.2978 -17.4997 45.8009 -16.7317 44.4006C-16.5637 44.0626 -16.3717 43.7488 -16.1797 43.4349C-15.1477 41.769 -13.8997 40.2722 -12.4357 38.9685C-12.0517 38.6305 -11.6677 38.3166 -11.2597 38.0027C-7.89969 35.4194 -3.69969 33.8984 0.836313 33.8984H80.8283C85.3643 33.8984 89.5643 35.4194 92.9243 38.0027C93.3323 38.3166 93.7163 38.6305 94.1003 38.9685C95.5403 40.2722 96.8123 41.769 97.8443 43.4349C98.0363 43.7488 98.2283 44.0626 98.3963 44.4006C99.1403 45.8009 99.7403 47.2978 100.172 48.8671C100.268 49.1809 100.34 49.5189 100.412 49.8328C100.676 51.1848 100.82 52.5851 100.82 54.0095Z" fill="#E2E2E2"/>
<g opacity="0.5">
<path d="M100.39 49.8329H-18.7461C-18.6741 49.519 -18.6021 49.181 -18.5061 48.8672H100.174C100.246 49.181 100.318 49.519 100.39 49.8329Z" fill="#D5D7F9"/>
<path d="M100.82 54.3008H-19.1797V55.2665H100.82V54.3008Z" fill="#D5D7F9"/>
<path d="M100.82 59.7305H-19.1797V60.6962H100.82V59.7305Z" fill="#D5D7F9"/>
</g>
<path d="M100.82 92.8088V108.26H-19.1797V71.3699C-18.1957 71.1526 -17.1877 71.0319 -16.2037 70.9112C-13.4677 70.5973 -10.6837 70.38 -7.92369 70.4042C-2.49969 70.4766 2.94831 71.6596 7.91631 73.8566C10.3403 74.9189 12.6683 76.2468 14.8283 77.7678C17.0843 79.3371 19.0283 81.2926 20.9723 83.1999C22.8203 85.0348 24.7163 86.8455 26.8523 88.3424C29.2283 90.0082 31.7483 91.4809 34.3163 92.7847C39.4043 95.3921 44.8763 97.2753 50.6363 97.2753C56.1803 97.2753 61.6043 95.8267 66.9323 94.4747C71.5643 93.2917 76.2683 92.2535 80.9963 91.6499C87.3803 90.8532 94.6043 90.6359 100.82 92.8088Z" fill="#4341EA"/>
<path opacity="0.26" d="M100.82 92.8088V99.2067C98.6123 99.2067 96.0683 98.4583 94.3163 98.41C85.7003 98.2168 77.2523 100.438 68.8523 102.152C64.0043 103.142 59.1323 104.011 54.1883 104.228C41.3243 104.808 28.3163 100.655 18.1163 92.7364C14.3483 89.8151 10.9883 86.4351 7.10031 83.6828C3.21231 80.9305 -1.34769 78.8301 -6.07569 78.9991C-7.87569 79.0715 -10.0837 79.8923 -10.2037 81.7031C-10.3237 83.5379 -8.25969 84.6485 -6.55569 85.3486C1.07631 88.5114 7.86831 93.7021 12.9563 100.221C13.6523 101.114 12.6203 102.345 11.6123 101.814L-8.57169 90.9981C-9.84369 90.3221 -11.1397 91.8672 -10.2517 93.002C-9.91569 93.4365 -9.55569 93.847 -9.17169 94.2332C-8.04369 95.4162 -8.95569 97.396 -10.5637 97.2994C-11.4757 97.2511 -12.3157 97.396 -12.9637 98.241C-13.6837 99.1825 -13.7557 100.486 -13.2517 101.573C-12.2917 103.601 -10.2037 104.494 -8.35569 105.556C-7.17969 106.232 -6.00369 107.077 -5.30769 108.212H-19.1797V71.3699C-18.1957 71.1526 -17.1877 71.0319 -16.2037 70.9112C-13.4677 70.5973 -10.6837 70.38 -7.92369 70.4042C-2.49969 70.4766 2.94831 71.6596 7.91631 73.8566C10.3403 74.9189 12.6683 76.2468 14.8283 77.7678C17.0843 79.3371 19.0283 81.2926 20.9723 83.1999C22.8203 85.0348 24.7163 86.8455 26.8523 88.3424C29.2283 90.0082 31.7483 91.4809 34.3163 92.7847C39.4043 95.3921 44.8763 97.2753 50.6363 97.2753C56.1803 97.2753 61.6043 95.8267 66.9323 94.4747C71.5643 93.2917 76.2683 92.2535 80.9963 91.6499C87.3803 90.8532 94.6043 90.6359 100.82 92.8088Z" fill="#4341EA"/>
<path d="M100.82 92.8081V97.4677C94.6043 95.2948 87.3803 95.488 80.9963 96.3088C76.2443 96.9124 71.5643 97.9505 66.9323 99.1335C61.5803 100.486 56.1803 101.934 50.6363 101.934C44.8763 101.934 39.4043 100.027 34.3163 97.4435C31.7483 96.1398 29.2283 94.6671 26.8523 93.0012C24.7163 91.5044 22.8203 89.6937 20.9723 87.8588C19.0283 85.9274 17.0843 83.9959 14.8283 82.4266C12.6683 80.9056 10.3403 79.6019 7.91631 78.5155C2.94831 76.3185 -2.49969 75.1596 -7.92369 75.0872C-10.6837 75.0389 -13.4677 75.2803 -16.2037 75.5942C-17.1877 75.7149 -18.1957 75.8356 -19.1797 76.0529V71.3933C-18.1957 71.176 -17.1877 71.0553 -16.2037 70.9346C-13.4677 70.6208 -10.6837 70.4035 -7.92369 70.4276C-2.49969 70.5 2.94831 71.683 7.91631 73.88C10.3403 74.9423 12.6683 76.2702 14.8283 77.7912C17.0843 79.3605 19.0283 81.3161 20.9723 83.2234C22.8203 85.0582 24.7163 86.8689 26.8523 88.3658C29.2283 90.0317 31.7483 91.5044 34.3163 92.8081C39.4043 95.4155 44.8763 97.2987 50.6363 97.2987C56.1803 97.2987 61.6043 95.8501 66.9323 94.4981C71.5643 93.3151 76.2683 92.277 80.9963 91.6734C87.3803 90.8525 94.6043 90.6352 100.82 92.8081Z" fill="#D5D7F9"/>
<path d="M34.3899 63.2302C34.0779 63.7131 33.3339 63.9062 32.7099 63.8097C32.0859 63.7131 31.5099 63.3751 30.9819 63.0612C27.8139 64.6547 24.3819 65.8135 20.8059 66.5378C17.6619 67.4794 14.4699 67.9381 10.7499 67.4552C10.4859 67.4552 10.2219 67.4311 9.9819 67.4311C9.6219 67.8657 9.2379 68.2761 8.7099 68.5417C8.1579 68.8072 7.3659 68.8555 6.8859 68.4934C6.4059 68.1071 6.5979 66.6344 7.2219 66.4895C6.9579 66.1032 6.6939 65.6928 6.4779 65.3065C4.1019 61.3471 3.1659 57.2669 3.7179 52.7522C2.9739 53.0178 2.0619 52.9695 1.4379 52.5108C0.837898 52.0521 0.669897 51.1829 1.1499 50.6518C1.6539 50.1206 4.0059 50.0723 4.3899 50.6759C9.9339 48.2616 12.7899 46.4026 19.0779 45.799C20.0139 45.7025 21.0219 45.6542 22.1259 45.6059C24.5499 45.4369 27.0219 45.4852 29.5419 45.7508C29.6619 45.0747 31.8939 44.447 32.5899 44.8092C33.2859 45.1713 33.4539 46.0405 33.0699 46.6199C32.6859 47.2235 31.8459 47.5373 31.0299 47.489C33.5979 51.9796 34.3899 57.0496 33.4059 61.9748C34.0539 61.9265 34.6779 62.7232 34.3899 63.2302Z" fill="#FF6585"/>
<path opacity="0.5" d="M34.3886 63.2288C34.0766 63.7117 33.3326 63.9048 32.7086 63.8082C32.0846 63.7117 31.5086 63.3737 30.9806 63.0598C27.8126 64.6532 24.3806 65.8121 20.8046 66.5364C17.6606 67.478 14.4686 67.9367 10.7486 67.4538C10.4846 67.4538 10.2206 67.4297 9.98056 67.4297C9.62056 67.8643 9.23656 68.2747 8.70856 68.5403C8.15656 68.8058 7.36456 68.8541 6.88456 68.492C6.40456 68.1057 6.59656 66.633 7.22056 66.4881C6.95656 66.1018 6.69256 65.6914 6.47656 65.3051C6.66856 65.2085 6.86056 65.0878 7.05256 64.9671C7.77256 64.5325 8.44456 63.9531 8.61256 63.2288C8.68456 62.9391 8.63656 62.6252 8.49256 62.3597C8.20456 61.7802 8.44456 61.0801 8.99656 60.7904C11.3726 59.5832 13.4846 58.0381 15.2606 56.2274C17.0366 54.4166 18.4526 52.2921 19.0286 49.9743C19.3406 48.7189 19.3886 47.3911 19.1246 46.1115C19.1006 46.0149 19.0766 45.9183 19.0526 45.8459C19.9886 45.7493 20.9966 45.701 22.1006 45.6528C24.5246 45.4838 26.9966 45.5321 29.5166 45.7976C29.6366 45.1216 31.8686 44.4939 32.5646 44.856C33.2606 45.2182 33.4286 46.0873 33.0446 46.6668C32.6606 47.2703 31.8206 47.5842 31.0046 47.5359C33.5726 52.0265 34.3646 57.0965 33.3806 62.0217C34.0526 61.9251 34.6766 62.7218 34.3886 63.2288Z" fill="#FF6585"/>
<path d="M15.4065 52.0508C15.3105 52.8234 15.1185 53.5718 14.8785 54.3202C14.6385 55.0686 14.3265 55.7688 13.9905 56.4689C13.6305 57.1691 13.2225 57.8209 12.7665 58.4487L12.4065 58.9074L12.0225 59.3419L11.6385 59.7765C11.4945 59.9214 11.3745 60.0421 11.2305 60.1869C11.3505 60.0421 11.4705 59.8972 11.5905 59.7282L11.9505 59.2695L12.2865 58.8108L12.6225 58.3279C13.0545 57.7002 13.4385 57.0242 13.7985 56.3482C14.1585 55.6722 14.4705 54.9721 14.7345 54.2478C14.9745 53.5235 15.2145 52.7992 15.4065 52.0508Z" fill="#C23C58"/>
<path d="M16.8938 51.9766C16.8458 53.0147 16.6538 54.0529 16.3898 55.0427C16.1258 56.0567 15.7658 57.0466 15.3338 57.9881C14.8778 58.9297 14.3738 59.8472 13.7738 60.6922L13.3178 61.3199L12.8378 61.9234L12.3098 62.5029C12.1178 62.696 11.9498 62.865 11.7578 63.0582C11.9258 62.865 12.0938 62.6477 12.2618 62.4546L12.7418 61.851L13.1978 61.2233L13.6298 60.5714C14.1818 59.7023 14.6858 58.809 15.1178 57.8674C15.5498 56.9259 15.9098 55.9601 16.1978 54.9703C16.5098 54.0046 16.7498 52.9906 16.8938 51.9766Z" fill="#C23C58"/>
<path d="M78.7669 52.4632C78.1669 52.9219 77.2309 52.9702 76.4869 52.7046C76.9909 56.7606 76.2709 60.4545 74.3989 64.0518C73.9669 64.8485 73.5109 65.6694 72.9589 66.4661C73.5829 66.6109 73.7749 68.1078 73.2949 68.4699C72.8149 68.8562 72.0469 68.8079 71.4709 68.5182C70.9429 68.2527 70.5589 67.8422 70.1989 67.4077C69.9349 67.4077 69.6709 67.4318 69.4309 67.4318C65.7349 67.9388 62.5189 67.4559 59.3749 66.5144C55.7989 65.7901 52.3669 64.6071 49.1989 63.0378C48.6709 63.3516 48.0949 63.6655 47.4709 63.7862C46.8229 63.8828 46.0789 63.7138 45.7909 63.2068C45.5029 62.7239 46.1269 61.9272 46.7749 61.9514C45.7669 57.0262 46.5829 51.9803 49.1509 47.4656C48.3589 47.5139 47.4949 47.1759 47.1109 46.5965C46.7269 45.9929 46.8949 45.1479 47.5909 44.7857C48.2869 44.4236 50.5189 45.0513 50.6389 45.7273C53.1589 45.4376 55.6309 45.3893 58.0549 45.5825C60.4069 45.6549 62.3269 45.848 64.0069 46.186C68.4229 47.031 71.1829 48.6486 75.7909 50.6525C76.1749 50.0489 78.5269 50.0972 79.0309 50.6283C79.5349 51.1595 79.3909 52.0045 78.7669 52.4632Z" fill="#FFCF66"/>
<path opacity="0.5" d="M73.3184 68.4699C72.8384 68.8562 72.0704 68.8079 71.4944 68.5182C70.9664 68.2527 70.5824 67.8422 70.2224 67.4077C69.9584 67.4077 69.6944 67.4318 69.4544 67.4318C65.7584 67.9388 62.5424 67.4559 59.3984 66.5144C55.8224 65.7901 52.3904 64.6071 49.2224 63.0378C48.6944 63.3516 48.1184 63.6655 47.4944 63.7862C46.8464 63.8828 46.1024 63.7138 45.8144 63.2068C45.5264 62.7239 46.1504 61.9272 46.7984 61.9514C45.7904 57.0262 46.6064 51.9803 49.1744 47.4656C48.3824 47.5139 47.5184 47.1759 47.1344 46.5965C46.7504 45.9929 46.9184 45.1479 47.6144 44.7857C48.3104 44.4236 50.5424 45.0513 50.6624 45.7273C53.1824 45.4376 55.6544 45.3893 58.0784 45.5825C60.4304 45.6549 62.3504 45.848 64.0304 46.186C64.4864 46.8137 64.8704 47.4897 65.1824 48.1899C65.8064 49.6143 66.0704 51.2078 65.9024 52.7529C65.8064 53.6703 65.5664 54.5878 65.6384 55.5293C65.7344 56.4468 66.2384 57.4366 67.1264 57.6539C67.8224 57.8471 68.5664 57.5332 69.2864 57.5332C70.0064 57.5332 70.8464 58.2092 70.5584 58.8611C70.4144 59.1749 70.0784 59.3198 69.8384 59.5612C69.0224 60.3821 69.6224 61.8789 70.5824 62.5066C71.5424 63.1344 72.7424 63.2551 73.8224 63.7138C74.0384 63.8104 74.2544 63.9069 74.4464 64.0276C74.0144 64.8244 73.5584 65.6452 73.0064 66.4419C73.6064 66.6109 73.7984 68.0837 73.3184 68.4699Z" fill="#FFCF66"/>
<path d="M67.0078 53.6719C67.1758 54.372 67.3678 55.0722 67.6078 55.7723C67.8478 56.4483 68.1358 57.1243 68.4718 57.752C68.8078 58.4039 69.1918 59.0075 69.5998 59.5869L69.9118 60.0215L70.2478 60.456L70.6078 60.8665C70.7278 61.0113 70.8478 61.132 70.9678 61.2769C70.8238 61.1562 70.7038 61.0355 70.5598 60.9148L70.1758 60.5285L69.8158 60.118L69.4558 59.7076C68.9998 59.1282 68.5918 58.5246 68.2558 57.8727C67.9198 57.2209 67.6318 56.5449 67.4158 55.8447C67.2238 55.1205 67.0558 54.3962 67.0078 53.6719Z" fill="#E8AC5D"/>
<path d="M66.0228 53.7461C65.7828 54.6877 65.6868 55.6534 65.6868 56.595C65.7108 57.5607 65.8308 58.5023 66.1188 59.4197C66.3828 60.3371 66.7908 61.2063 67.2948 62.0271C67.5588 62.4375 67.8228 62.8238 68.1348 63.186C68.4468 63.5481 68.7828 63.9103 69.1188 64.2241C68.7348 63.9344 68.3748 63.5964 68.0388 63.2584C67.7028 62.8963 67.4148 62.5341 67.1268 62.1237C66.5748 61.327 66.1668 60.4337 65.8788 59.4921C65.6148 58.5505 65.4708 57.5848 65.4948 56.595C65.5428 55.6292 65.7108 54.6635 66.0228 53.7461Z" fill="#E8AC5D"/>
<path d="M73.9865 71.3938C72.5705 68.3518 70.0985 65.8409 67.0985 64.3682C65.2985 63.4749 63.0185 62.6299 62.6585 60.6502C62.3945 59.2016 63.3065 57.8496 63.8585 56.4976C64.8185 54.0833 64.5785 51.3552 63.7385 48.8926C62.8985 46.4541 61.4825 44.2571 60.0665 42.0843C58.3625 39.501 56.6105 36.9177 54.4265 34.7448C52.2425 32.5478 49.6025 30.7612 46.6025 30.0128C42.0425 28.8781 37.6745 31.6062 32.9705 31.9442C28.9865 32.2339 25.6505 35.3242 23.8025 38.8733C21.9545 42.4223 21.2825 46.4783 20.3705 50.3653C19.4585 54.2764 18.2105 58.26 15.4985 61.2296C14.0825 62.7506 12.3545 63.9336 10.6745 65.1649C8.99449 66.3962 7.33848 67.7241 6.18648 69.4382C5.03448 71.1765 4.43448 73.3976 5.08248 75.3774C18.5465 78.3469 32.8025 79.9887 46.1945 76.6328C50.8505 75.4739 55.3145 73.6874 59.9465 72.4561C64.5785 71.2489 69.3305 70.2832 73.9865 71.3938Z" fill="#7271FD"/>
<path d="M76.7941 74.8217C76.7701 74.363 76.7221 73.8801 76.6261 73.3973C75.9061 69.8241 51.3541 58.6942 51.3541 58.6942L33.8341 58.5977H32.7781C32.7781 58.5977 9.95409 66.758 8.22609 71.659C6.49809 76.56 8.3221 79.9159 12.0901 81.1471C13.2181 81.5093 16.3621 81.8956 20.2261 82.2336C26.8981 82.8372 35.7061 83.3683 39.9781 83.5856L40.0021 84.165C40.0021 84.165 64.7701 82.475 70.4581 81.4369C75.3541 80.5919 76.9141 77.8637 76.7941 74.8217ZM42.9301 73.9526L41.2981 74.0491L40.7941 73.9043L41.8261 73.011L42.9301 73.6146L43.5061 73.9284L42.9301 73.9526Z" fill="#07002E"/>
<path d="M54.4961 70.5983C55.0721 70.381 55.6481 70.1879 56.2241 69.9947C56.8001 69.8016 57.3761 69.6326 57.9761 69.4636C58.5521 69.2946 59.1521 69.1256 59.7281 68.9807L60.6161 68.7635C60.9041 68.691 61.2161 68.6186 61.5041 68.5703C61.2161 68.691 60.9281 68.7876 60.6401 68.8842L59.7761 69.1739C59.2001 69.367 58.6241 69.536 58.0241 69.705C57.4481 69.874 56.8481 70.043 56.2721 70.1879C55.6961 70.3327 55.0961 70.4776 54.4961 70.5983Z" fill="#170099"/>
<path d="M59.8948 67.6992C59.6788 68.0614 59.4148 68.3752 59.1508 68.6891C58.8628 68.9788 58.5748 69.2685 58.2148 69.5099C58.4308 69.1478 58.6948 68.8339 58.9588 68.5201C59.2468 68.2304 59.5588 67.9406 59.8948 67.6992Z" fill="#170099"/>
<path d="M24.207 69.9453C25.623 70.235 27.039 70.573 28.479 70.8869C29.895 71.2249 31.311 71.5629 32.727 71.9009C34.143 72.263 35.559 72.601 36.951 72.9632L39.063 73.5185C39.759 73.7116 40.479 73.9048 41.175 74.0979C40.455 73.953 39.759 73.784 39.039 73.6392L36.903 73.1563C35.487 72.8183 34.071 72.4803 32.655 72.1423C31.239 71.7802 29.823 71.4422 28.431 71.08C27.015 70.7179 25.623 70.3557 24.207 69.9453Z" fill="#170099"/>
<path d="M25.2617 68.9805C25.5497 69.1736 25.7657 69.415 25.9817 69.6565C26.1977 69.922 26.3897 70.1876 26.5337 70.5015C26.2457 70.3083 26.0297 70.0669 25.8137 69.8255C25.5977 69.584 25.4057 69.2943 25.2617 68.9805Z" fill="#170099"/>
<path opacity="0.5" d="M24.5206 66.6614C24.4486 67.0235 24.6886 67.3374 24.9286 67.603C26.2006 69.0274 27.8326 70.138 29.6326 70.7898C29.9926 70.9105 29.8726 71.4417 29.5126 71.4176C28.8646 71.3934 28.2166 71.2485 27.5686 71.1278C26.3926 70.9347 25.0486 70.8864 24.1846 71.7073C23.3446 72.4798 23.2246 73.7836 22.5526 74.7251C21.8566 75.715 20.6806 76.1979 19.6726 76.8497C18.6646 77.5016 17.7286 78.6121 17.9926 79.7951C18.2086 80.7609 19.1686 81.3644 19.9366 81.9922C20.0326 82.0646 20.1286 82.1612 20.2006 82.2336C16.3366 81.8956 13.1926 81.5093 12.0646 81.1471C8.32061 79.9159 6.49661 76.56 8.20061 71.659C9.92861 66.758 32.7526 58.5977 32.7526 58.5977H33.8086C33.1366 61.0119 31.8646 63.0882 29.7286 64.5127C28.5526 65.2852 27.2326 65.7922 25.8166 65.9371C25.3126 66.0095 24.6166 66.1302 24.5206 66.6614Z" fill="#07002E"/>
<path opacity="0.5" d="M76.7909 74.8235C75.9989 74.7511 75.1829 74.4613 74.4629 74.0751C73.1189 73.3749 71.7509 72.4092 70.2389 72.5299C69.6869 72.5782 69.1349 72.7472 68.5829 72.7955C68.0309 72.8438 67.4069 72.7231 67.0709 72.2643C66.7349 71.8056 66.9029 71.0089 67.4309 70.8882C65.9909 70.2605 64.3829 70.2605 62.8229 70.4053C56.0309 71.0331 49.5269 74.2923 42.7109 74.0026C42.7829 73.9785 42.8549 73.9543 42.9269 73.9302C43.0469 73.8819 43.1909 73.8336 43.3109 73.8095C45.4469 73.0852 47.5589 72.3851 49.6949 71.6608C50.2709 71.4676 50.9189 71.1779 51.0629 70.5985C51.2069 69.9225 50.5829 69.3672 50.1989 68.8119C49.4309 67.7255 49.4789 66.2769 49.7669 64.9732C50.0549 63.6695 50.5589 62.4382 50.6789 61.1103C50.7509 60.3136 50.6549 59.4927 50.4149 58.7202L51.3749 58.6719C51.3749 58.6719 75.9269 69.8018 76.6469 73.3749C76.6949 73.8819 76.7669 74.3648 76.7909 74.8235Z" fill="#07002E"/>
<path d="M49.6715 88.0509L48.9035 88.244C47.4155 84.7916 45.7355 83.2464 44.5595 82.4738L42.5195 82.1841L42.6635 75.5931C43.2635 75.4965 43.8635 75.2551 44.3675 74.893C44.4155 74.8688 44.4395 74.8447 44.4875 74.8205C45.4475 74.2894 46.1675 74.1445 46.6235 74.1445C47.0315 74.1445 47.3675 74.4343 47.4395 74.8205L49.6715 88.0509Z" fill="#E29579"/>
<path d="M39.6168 17.4309C39.0648 16.8515 38.0568 16.6825 37.4328 17.2378C32.8968 7.58058 25.6968 12.9403 25.6968 12.9403C20.9928 15.934 23.1048 21.4869 24.5208 24.1668C24.3048 24.1668 24.1368 24.1668 24.0408 24.1909C23.2248 24.3841 22.7688 25.3015 22.9128 26.0982C23.0088 26.7259 23.4408 27.2812 23.9928 27.6192C24.4488 27.8848 25.0728 28.0296 25.6008 27.9814C25.7208 27.9572 26.1768 27.8124 26.5128 27.6434C30.4488 33.4618 35.7288 29.9611 35.7288 29.9611C40.6968 27.6916 40.2168 23.6356 39.2328 21.0523C39.4008 20.9316 39.5448 20.8351 39.5688 20.7868C39.9288 20.3763 40.1448 19.7969 40.2168 19.2658C40.2648 18.5656 40.0728 17.8896 39.6168 17.4309Z" fill="#E29579"/>
<path d="M38.167 22.8435C38.6412 21.9799 38.3297 20.893 37.4711 20.4159C36.6126 19.9388 35.5322 20.2522 35.0579 21.1159C34.5837 21.9796 34.8952 23.0664 35.7538 23.5435C36.6123 24.0206 37.6927 23.7072 38.167 22.8435Z" fill="#DF8666"/>
<path d="M30.4622 26.5763C30.7596 25.636 30.243 24.6313 29.3084 24.3321C28.3737 24.033 27.3749 24.5527 27.0775 25.4929C26.7802 26.4331 27.2968 27.4378 28.2314 27.737C29.1661 28.0362 30.1648 27.5165 30.4622 26.5763Z" fill="#DF8666"/>
<path d="M32.6347 20.1347C32.8987 20.6417 33.3307 20.9797 33.5707 20.8349C33.8347 20.7141 33.8107 20.183 33.5467 19.6519C33.2827 19.1449 32.8507 18.8068 32.6107 18.9517C32.3707 19.0966 32.3707 19.6277 32.6347 20.1347Z" fill="#07002E"/>
<path d="M29.5858 21.7025C29.8498 22.2095 29.8498 22.7407 29.6098 22.8855C29.3698 23.0063 28.9378 22.6924 28.6738 22.1854C28.4098 21.6784 28.4098 21.1473 28.6498 21.0024C28.9138 20.8817 29.3218 21.1955 29.5858 21.7025Z" fill="#07002E"/>
<path d="M30.3054 22.7188C30.4254 23.0326 30.3774 23.4189 30.1614 23.7086C30.0414 23.8535 29.9214 23.9742 29.7534 24.0225C29.6814 24.0708 29.5854 24.0708 29.5134 24.119C29.4414 24.1432 29.3454 24.1432 29.2734 24.1432C29.3454 24.0949 29.4174 24.0466 29.4894 24.0225C29.5614 23.9742 29.6334 23.95 29.6814 23.8776C29.8014 23.781 29.9214 23.6845 29.9934 23.5638C30.0894 23.443 30.1614 23.3223 30.2094 23.1775C30.2334 23.0326 30.2814 22.8878 30.3054 22.7188Z" fill="#DF8666"/>
<path d="M33.1133 21.3181C33.3293 21.5837 33.6893 21.7286 34.0253 21.6803C34.1933 21.6561 34.3613 21.6079 34.5053 21.4871C34.5773 21.4389 34.6493 21.3906 34.6973 21.3181C34.7453 21.2457 34.7933 21.1974 34.8413 21.125C34.7693 21.1491 34.6973 21.1974 34.6253 21.2457C34.5533 21.2699 34.4813 21.3181 34.4093 21.3423C34.2653 21.4147 34.1213 21.4389 33.9773 21.463C33.8333 21.4871 33.6893 21.4871 33.5453 21.463C33.4253 21.4147 33.2813 21.3906 33.1133 21.3181Z" fill="#DF8666"/>
<path d="M32.25 24.2163C32.322 23.999 32.466 23.83 32.61 23.661C32.778 23.492 32.97 23.3713 33.186 23.2989C33.402 23.2265 33.642 23.1782 33.858 23.2265C33.978 23.2265 34.074 23.2748 34.194 23.2989C34.29 23.323 34.41 23.3713 34.506 23.4196C34.386 23.4196 34.29 23.3955 34.194 23.3955C34.098 23.3955 33.978 23.3713 33.882 23.3955C33.666 23.3955 33.474 23.4438 33.282 23.5162C32.898 23.6369 32.562 23.9025 32.25 24.2163Z" fill="#07002E"/>
<path d="M33.9059 25.1797C33.8339 25.3728 33.6899 25.4935 33.4979 25.5901C33.3299 25.6625 33.1139 25.7108 32.9219 25.6867C33.1139 25.6384 33.2819 25.5901 33.4259 25.4935C33.6179 25.397 33.7619 25.3004 33.9059 25.1797Z" fill="#07002E"/>
<path d="M28.6256 18.3502C28.7696 18.6399 28.7936 18.9054 28.7456 19.1952C28.6976 19.4849 28.6016 19.7504 28.4336 19.9919C28.2896 20.2333 28.0736 20.4506 27.8576 20.6196C27.6416 20.7886 27.3776 20.9093 27.1136 20.9817C26.9936 21.03 26.8496 20.9334 26.8016 20.8127C26.7776 20.7162 26.8016 20.5954 26.8976 20.5472L26.9216 20.523C27.1136 20.4023 27.2816 20.2574 27.4256 20.1126C27.5696 19.9677 27.6896 19.7987 27.7616 19.6056C27.8576 19.4124 27.9056 19.2193 27.9536 19.0262C28.0016 18.833 28.0256 18.6157 28.1216 18.3984L28.1456 18.3502C28.2176 18.2294 28.3616 18.1812 28.4816 18.2294C28.5776 18.2777 28.6016 18.3019 28.6256 18.3502Z" fill="#07002E"/>
<path d="M30.5949 17.1177C30.7869 17.3833 31.0269 17.504 31.3149 17.5764C31.5789 17.6488 31.8669 17.673 32.1789 17.6488C32.4669 17.6247 32.7549 17.5281 32.9949 17.4074C33.2589 17.2867 33.4509 17.0936 33.6429 16.8763C33.7389 16.7797 33.7149 16.6107 33.6189 16.5383C33.5469 16.4658 33.4269 16.4658 33.3309 16.5141L33.3069 16.5383C33.1149 16.659 32.9229 16.7556 32.7309 16.828C32.5389 16.9004 32.3229 16.9246 32.1309 16.9246C31.9389 16.9246 31.7229 16.9004 31.5309 16.8521C31.3389 16.8038 31.1229 16.7314 30.8829 16.7314H30.8109C30.6669 16.7314 30.5469 16.8521 30.5469 16.997C30.5469 17.0211 30.5709 17.0694 30.5949 17.1177Z" fill="#07002E"/>
<path d="M30.4961 19.4336C30.7601 19.7475 31.0001 20.0613 31.2401 20.3752C31.4801 20.689 31.7201 21.0029 31.9841 21.2685C32.0561 21.3409 32.1041 21.4133 32.1761 21.4616C32.2241 21.5099 32.3441 21.6065 32.4161 21.7272C32.5361 21.9445 32.5121 22.2583 32.3681 22.4515C32.2241 22.6687 32.0081 22.7653 31.7921 22.7895C31.5761 22.8136 31.3841 22.7895 31.1681 22.7412C31.5521 22.6929 31.9841 22.5963 32.1281 22.3066C32.2001 22.1617 32.2001 22.0169 32.1281 21.8962C32.0801 21.8237 32.0561 21.7996 31.9601 21.7272C31.8881 21.6547 31.7921 21.5823 31.7201 21.5099C31.4321 21.196 31.1921 20.858 31.0001 20.52C30.8081 20.182 30.6161 19.8199 30.4961 19.4336Z" fill="#07002E"/>
<path d="M23.7285 26.2921C23.6085 26.0748 23.5605 25.8093 23.6565 25.5437C23.7765 25.2781 24.0645 25.1333 24.3285 25.1091C24.5925 25.0608 24.8805 25.1333 25.1205 25.2298C25.3605 25.3264 25.5765 25.4713 25.7925 25.6403C25.8645 25.7127 25.8645 25.8093 25.8165 25.8817C25.7685 25.93 25.6965 25.9541 25.6245 25.93H25.6005C25.3605 25.8575 25.0965 25.7851 24.8805 25.8334C24.7845 25.8576 24.7125 25.9058 24.6645 25.9783C24.6165 26.0507 24.6165 26.1714 24.6405 26.2921C24.6645 26.5336 24.7365 26.7991 24.9765 26.7991C25.2165 26.7991 25.4805 26.6543 25.6965 26.4853C25.5285 26.7026 25.3125 26.9198 25.0005 26.9923C24.8325 27.0164 24.6405 26.9198 24.5445 26.775C24.4485 26.6301 24.4005 26.4853 24.3765 26.3404C24.3525 26.1956 24.3285 26.0266 24.4005 25.8334C24.4725 25.6403 24.6645 25.5195 24.8325 25.4954C25.1685 25.423 25.4565 25.4954 25.7445 25.6161L25.5525 25.9058C25.2165 25.6161 24.8085 25.3747 24.3765 25.3747C24.1605 25.3747 23.9445 25.4471 23.8245 25.6161C23.6805 25.7851 23.6805 26.0507 23.7285 26.2921Z" fill="#07002E"/>
<path d="M39.5191 18.1335C39.4231 17.9162 39.2311 17.6989 38.9671 17.6265C38.6791 17.5541 38.3911 17.7231 38.2231 17.9162C38.0311 18.1093 37.9351 18.3749 37.8631 18.6164C37.7911 18.8819 37.7911 19.1234 37.8151 19.3889C37.8151 19.4855 37.9111 19.5579 38.0071 19.5579C38.0791 19.5579 38.1271 19.5096 38.1511 19.4372V19.4131C38.2231 19.1716 38.3191 18.9061 38.4871 18.7612C38.5591 18.6888 38.6311 18.6646 38.7271 18.6646C38.8231 18.6888 38.9191 18.7371 39.0151 18.8336C39.2071 19.0026 39.3751 19.2199 39.2551 19.3889C39.1351 19.5821 38.8471 19.7028 38.5831 19.7994C38.8711 19.7752 39.1591 19.7269 39.3991 19.5096C39.5191 19.3889 39.5431 19.1716 39.4951 19.0026C39.4231 18.8578 39.3511 18.7129 39.2311 18.6164C39.1351 18.4956 38.9911 18.3991 38.8231 18.3508C38.6311 18.3025 38.4151 18.3749 38.2951 18.4956C38.0551 18.7371 37.9351 19.0026 37.8391 19.3165L38.1751 19.3406C38.1271 18.9061 38.1751 18.3991 38.4391 18.0611C38.5591 17.8921 38.7511 17.7472 38.9431 17.7472C39.1351 17.7955 39.3511 17.9403 39.5191 18.1335Z" fill="#07002E"/>
<path d="M38.369 16.9017C37.745 15.0185 36.521 13.3285 34.913 12.1214C35.681 11.3247 35.777 9.97267 35.201 9.03109C35.225 9.53809 34.841 9.99681 34.409 10.2141C33.953 10.4314 33.425 10.4797 32.921 10.5038C32.105 10.528 31.217 10.6487 30.377 10.5762C30.377 9.70709 30.161 8.88623 29.585 8.23438C29.417 9.07938 28.841 9.77952 28.145 10.2865C27.473 10.7935 26.681 11.1557 25.937 11.5661C24.713 12.218 23.561 13.063 22.769 14.1977C21.977 15.3324 21.737 16.7327 22.169 18.0364C21.569 18.133 21.185 18.7607 21.185 19.3643C21.161 19.9678 21.449 20.5473 21.737 21.0543C22.361 22.1648 23.153 23.203 24.041 24.1204C24.137 24.0963 24.281 24.0963 24.449 24.0963C25.025 24.6516 25.841 24.9896 26.657 24.9896C26.153 24.4584 26.177 23.6376 26.153 22.8891C26.129 21.2957 25.769 19.7264 25.145 18.2537C28.217 17.8191 31.265 16.2015 33.161 13.7148C34.217 15.767 36.233 17.2155 36.905 19.4367C37.265 18.7607 37.433 17.964 37.409 17.1914C37.697 16.9983 38.033 16.9017 38.369 16.9017Z" fill="#07002E"/>
<path d="M31.8914 31.0738C32.1794 31.5566 32.5874 32.3292 32.8994 33.0535C32.4434 33.657 31.7954 34.2365 30.8594 34.7193C32.0114 35.6126 33.4274 36.2645 34.6994 36.7232C36.6914 37.4233 38.7554 37.6648 40.6994 36.6266C42.4754 35.6851 43.5314 33.995 44.2274 32.0878C43.0994 32.1602 42.1874 31.9429 41.4674 31.629C41.1794 31.291 40.8674 30.9048 40.5314 30.446C39.9314 29.6735 39.3554 28.7802 39.0434 27.9835C38.8994 27.5972 38.8034 27.235 38.8274 26.9453H34.2674L31.0994 30.1322C31.2434 30.2529 31.6034 30.6875 31.8914 31.0738Z" fill="#E29579"/>
<path d="M31.7969 30.9297C31.7969 30.9297 35.1569 31.3884 38.8529 27.4531C38.8769 27.4531 37.9649 34.4787 31.7969 30.9297Z" fill="#DF8666"/>
<path d="M53.8984 64.1966C53.2984 63.931 52.6984 63.6171 52.0984 63.3516C51.7144 64.8001 51.4744 65.6934 51.4264 65.8624C49.6984 66.8764 48.6664 68.156 48.1384 68.832C47.7544 69.339 47.8984 69.7012 48.0664 69.9184C48.1384 70.015 48.2824 70.015 48.3784 69.9184C48.7864 69.4597 49.6984 68.7113 50.1304 68.9044C50.5864 69.0976 48.2824 73.3226 48.8344 73.7572C49.0504 73.9262 50.7784 70.9807 50.7784 70.9807C50.7784 70.9807 49.5304 74.5056 50.0104 74.5056C50.4904 74.5056 52.0024 71.536 52.0024 71.536C52.0024 71.536 51.1624 75.2057 51.6424 74.9885C52.1224 74.7712 53.1784 72.043 53.1784 72.043C53.0104 73.4192 53.1544 73.9986 53.2744 74.24C53.3224 74.3607 53.4904 74.3607 53.5384 74.24C54.2584 72.8156 54.3784 69.1217 54.4024 67.5524H54.4264C55.0744 66.7799 55.6744 66.0073 56.2504 65.1864C55.4584 64.8484 54.6664 64.5346 53.8984 64.1966Z" fill="#D88567"/>
<path d="M24.7154 27.3557C24.7874 27.6213 25.1234 31.0254 26.0594 32.5223L26.1314 32.8361L25.9634 34.9366C27.3794 35.0331 28.8194 35.009 30.2114 35.1297C29.9714 34.164 29.8034 33.4397 29.7074 33.1017C29.9234 32.4981 30.3554 31.2186 30.4994 30.7599C30.6914 30.1321 29.5154 27.9593 29.1314 27.742C28.7474 27.5247 28.6754 29.6976 28.6754 29.6976C28.6754 29.6976 26.9474 26.3417 26.8034 26.2451C26.6594 26.1727 26.4914 26.3417 26.4914 26.3417C26.4914 26.3417 25.9874 24.9414 25.5074 24.9414C25.0274 24.9414 25.1714 25.545 25.1714 25.545C25.1714 25.545 24.6914 25.4726 24.6914 25.6898C24.6914 25.9071 25.1474 26.8487 25.1474 26.8487C25.1474 26.8487 24.6194 27.0901 24.7154 27.3557Z" fill="#E29579"/>
<path d="M26.4883 26.4883C26.7283 26.8504 26.9203 27.2367 27.0883 27.6471C27.2563 28.0576 27.3763 28.4439 27.4483 28.8784C27.2083 28.5163 27.0163 28.13 26.8483 27.7196C26.7043 27.3333 26.5603 26.9229 26.4883 26.4883Z" fill="#DF8666"/>
<path d="M25.1914 25.6172C25.4314 25.9552 25.6234 26.3415 25.7914 26.7036C25.9594 27.0899 26.0794 27.4762 26.1514 27.8866C25.9114 27.5486 25.7194 27.1865 25.5514 26.8002C25.4074 26.4139 25.2634 26.0276 25.1914 25.6172Z" fill="#DF8666"/>
<path d="M25.1211 26.8477C25.3131 27.0408 25.4331 27.2822 25.5291 27.4995C25.6251 27.7409 25.6971 27.9824 25.6971 28.2479C25.5051 28.0548 25.3851 27.8134 25.2891 27.5961C25.2171 27.3788 25.1211 27.1374 25.1211 26.8477Z" fill="#DF8666"/>
<path d="M30.5217 30.7342C30.5457 30.5169 30.5697 30.2754 30.4737 30.0823C30.3537 29.8891 30.2577 29.696 30.1617 29.4787C29.9457 29.0924 29.7297 28.682 29.5137 28.2957C29.4657 28.1991 29.3937 28.1026 29.3457 28.006C29.2977 27.9094 29.2257 27.8129 29.1537 27.7646C29.1297 27.7646 29.1777 27.7646 29.1777 27.7646L29.1537 27.7887C29.1297 27.837 29.1057 27.8853 29.1057 27.9336C29.0817 28.0301 29.0577 28.1509 29.0337 28.2474C28.9617 28.682 28.8897 29.1166 28.8657 29.5753L28.8417 29.9374L28.6737 29.6236C28.3377 28.9959 28.0017 28.3681 27.6657 27.7404L27.1617 26.7989C27.0657 26.654 26.9937 26.485 26.8977 26.3401C26.8737 26.316 26.8497 26.2677 26.8257 26.2436C26.8497 26.2677 26.8497 26.2677 26.8737 26.2677C26.8737 26.2677 26.8497 26.2677 26.8257 26.2919C26.7537 26.316 26.6817 26.3643 26.6337 26.4126L26.5137 26.5091L26.4657 26.3643C26.4177 26.1711 26.3457 25.978 26.2737 25.7849C26.2017 25.5917 26.1057 25.3986 26.0097 25.2537C25.9617 25.1813 25.8897 25.1088 25.8417 25.0847C25.7697 25.0606 25.6737 25.0364 25.5777 25.0606C25.4097 25.0847 25.3137 25.2296 25.3137 25.4227V25.5193L25.2177 25.4951C25.1457 25.4951 25.0737 25.471 25.0017 25.4951C24.9297 25.4951 24.8577 25.5193 24.8097 25.5434C24.8097 25.5676 24.7857 25.5434 24.7857 25.5917C24.7857 25.6159 24.8097 25.6641 24.8097 25.6883C24.8337 25.7607 24.8577 25.8331 24.8817 25.9056C24.9777 26.1953 25.0977 26.5091 25.2177 26.7989L25.2417 26.8471L25.2177 26.8713C25.1217 26.9196 25.0257 26.9679 24.9297 27.0161C24.8577 27.0644 24.7377 27.1369 24.7377 27.2334C24.7377 27.33 24.7617 27.4507 24.7857 27.5473C24.8097 27.6439 24.8337 27.7646 24.8577 27.8611C24.8097 27.7646 24.7857 27.668 24.7617 27.5473C24.7377 27.4507 24.6897 27.33 24.6897 27.2334C24.6897 27.161 24.7377 27.1127 24.7617 27.0644C24.8097 27.0161 24.8337 26.992 24.8817 26.9679C24.9777 26.8954 25.0737 26.8471 25.1697 26.7989L25.1457 26.8471C25.0017 26.5574 24.8817 26.2677 24.7617 25.9539C24.7377 25.8814 24.7137 25.809 24.6897 25.7124C24.6657 25.6641 24.6657 25.64 24.6657 25.5917C24.6417 25.5434 24.6657 25.4469 24.7137 25.4227C24.8097 25.3503 24.9057 25.3503 24.9777 25.3261C25.0737 25.3261 25.1457 25.3261 25.2417 25.3261L25.1457 25.4227C25.1457 25.302 25.1457 25.1813 25.2177 25.0606C25.2897 24.9398 25.4097 24.8674 25.5297 24.8674C25.6497 24.8433 25.7697 24.8433 25.8897 24.8916C26.0097 24.9398 26.1057 25.0364 26.1537 25.133C26.2737 25.3261 26.3697 25.5193 26.4417 25.7124C26.5137 25.9056 26.5857 26.0987 26.6577 26.316L26.4897 26.2677C26.5617 26.1953 26.6337 26.147 26.7537 26.1229C26.7777 26.1229 26.8017 26.0987 26.8497 26.0987C26.8737 26.0987 26.8737 26.0987 26.8977 26.0987C26.9217 26.0987 26.9697 26.1229 26.9697 26.147L26.9937 26.1711C27.0417 26.2194 27.0657 26.2436 27.0897 26.2919C27.1857 26.4367 27.2817 26.6057 27.3777 26.7506C27.5457 27.0644 27.7377 27.3783 27.9057 27.6921C28.2417 28.3199 28.5537 28.9476 28.8897 29.5753L28.6977 29.6236C28.7457 29.1649 28.7937 28.7303 28.8897 28.2716C28.9137 28.1509 28.9377 28.0543 28.9857 27.9336C29.0097 27.8853 29.0337 27.8129 29.0577 27.7646C29.0817 27.7404 29.0817 27.6921 29.1297 27.668C29.1537 27.6439 29.2017 27.6439 29.2257 27.6439C29.2737 27.6439 29.2737 27.668 29.2977 27.668C29.4177 27.7646 29.4657 27.8611 29.5377 27.9577C29.6097 28.0543 29.6577 28.1509 29.7057 28.2474C29.9217 28.6337 30.1137 29.0441 30.3057 29.4546C30.4017 29.6477 30.4977 29.865 30.5937 30.0581C30.6177 30.2754 30.5697 30.5169 30.5217 30.7342Z" fill="#DF8666"/>
<path d="M63.3298 50.7237C62.9218 46.6194 51.4018 32.7855 49.7218 32.3027C48.0418 31.8198 41.1538 31.168 41.1538 31.168C41.1538 31.168 41.2258 34.3065 38.2738 35.4413C35.3218 36.576 32.7538 33.027 32.7538 33.027C32.3218 33.4615 31.4098 33.9927 30.3778 34.5238C30.2578 33.5823 30.1858 33.027 30.1858 33.027L25.7938 32.9545L25.1458 37.3003C25.1458 37.3003 23.2258 40.3664 22.6738 42.6841C22.1218 45.0019 18.8338 59.3428 23.6338 61.7571C27.9778 63.9299 31.5538 61.1293 32.4178 57.4596L32.7538 58.6185C42.9058 62.7228 51.3298 58.715 51.3298 58.715C51.3298 58.715 51.4978 54.321 51.5938 50.2409L54.1858 53.3795L50.9938 65.2819C51.9538 65.7648 55.3138 67.3824 55.3138 67.3824C55.3138 67.3824 63.7378 54.828 63.3298 50.7237Z" fill="white"/>
<path d="M33.2808 44.6875C33.3768 45.7498 33.4248 46.8121 33.4488 47.8744C33.4728 48.9367 33.4248 49.9989 33.3768 51.0854C33.3048 52.1477 33.2088 53.21 33.0648 54.2722C32.9208 55.3345 32.7048 56.3727 32.4648 57.4108C32.5368 56.8797 32.6328 56.3485 32.7048 55.8174C32.7768 55.2862 32.8488 54.7551 32.8968 54.224C32.9928 53.1617 33.1128 52.0994 33.1608 51.0371C33.2328 49.9748 33.2568 48.9125 33.3048 47.8502C33.3288 47.3191 33.3288 46.7879 33.3288 46.2568C33.2808 45.7739 33.2808 45.2428 33.2808 44.6875Z" fill="#A3A9F3"/>
<path d="M25.0478 37.4453C24.9518 37.9523 24.8558 38.4593 24.7598 38.9422C24.6638 39.4492 24.5678 39.9562 24.4958 40.4632C24.3278 41.4772 24.1598 42.467 24.0398 43.481C23.8958 44.495 23.7758 45.509 23.6558 46.5231L23.5598 47.2956L23.4878 48.0682C23.4158 48.5752 23.3918 49.0822 23.3438 49.5892C23.3438 48.5752 23.3677 47.5371 23.4637 46.5231C23.5358 45.509 23.6558 44.495 23.7998 43.481C23.9438 42.467 24.1118 41.453 24.3278 40.4632C24.5438 39.4492 24.7838 38.4352 25.0478 37.4453Z" fill="#A3A9F3"/>
<path d="M30.4492 34.6172C30.8332 35.2449 31.1692 35.8968 31.4572 36.5728C31.7692 37.2488 32.0332 37.9248 32.2732 38.6249C32.4892 39.3251 32.7052 40.0252 32.8252 40.7495C32.9452 41.4738 33.0412 42.1981 33.0172 42.9465C32.9692 42.5844 32.9452 42.2222 32.8492 41.8601C32.8012 41.4979 32.7052 41.1358 32.6332 40.7978C32.4652 40.0976 32.2492 39.3975 32.0332 38.6973C31.7932 37.9972 31.5532 37.3212 31.2892 36.6452C31.1692 36.3072 31.0252 35.9692 30.8812 35.6312C30.7612 35.2932 30.6172 34.9552 30.4492 34.6172Z" fill="#A3A9F3"/>
<path d="M21.9297 50.361C22.0497 49.5643 22.2657 48.7917 22.5297 48.0433C22.6737 47.657 22.8177 47.2948 22.9857 46.9327C23.1537 46.5705 23.3457 46.2084 23.6097 45.8945C23.4417 46.2567 23.2977 46.6188 23.1537 47.0051C23.0097 47.3673 22.8897 47.7535 22.7457 48.1157C22.5057 48.8883 22.2417 49.6367 21.9297 50.361Z" fill="#A3A9F3"/>
<path d="M51.571 50.2405C51.451 49.6852 51.355 49.1299 51.259 48.5505C51.163 47.9952 51.091 47.4158 51.019 46.8605C50.947 46.3052 50.875 45.7258 50.827 45.1705L50.755 44.3255C50.731 44.0358 50.707 43.7702 50.707 43.4805C50.779 43.7702 50.827 44.0358 50.875 44.3255L51.019 45.1705C51.115 45.7258 51.187 46.3052 51.259 46.8605C51.331 47.4158 51.403 47.9952 51.451 48.5505C51.523 49.1058 51.571 49.6852 51.571 50.2405Z" fill="#A3A9F3"/>
<path d="M40.8672 45.5312C41.2752 45.9658 41.7072 46.4004 42.1152 46.8108C42.5472 47.2213 42.9792 47.6317 43.4352 48.018C43.8912 48.4043 44.3472 48.7905 44.8272 49.1527C45.0672 49.3217 45.3072 49.5148 45.5472 49.6838L45.9072 49.9494C46.0272 50.0218 46.1472 50.1184 46.2672 50.215C46.0032 50.0943 45.7392 49.9494 45.4752 49.8046C45.2112 49.6597 44.9712 49.4907 44.7072 49.3217C44.2032 48.9837 43.7232 48.6215 43.2672 48.2353C42.8112 47.849 42.3792 47.4144 41.9712 46.9798C41.5872 46.497 41.2032 46.0383 40.8672 45.5312Z" fill="#A3A9F3"/>
<path d="M40.7227 47.3438C41.0827 48.0198 41.4667 48.6716 41.8987 49.2993C42.3307 49.927 42.8107 50.5306 43.3147 51.0859C43.8187 51.6412 44.3707 52.1723 44.9467 52.6793L45.3787 53.0415L45.8347 53.3795L46.2907 53.7175C46.4587 53.8141 46.6027 53.9348 46.7707 54.0313C46.6027 53.9348 46.4347 53.8623 46.2667 53.7658L45.7627 53.4761L45.2827 53.1622L44.8267 52.8242C44.2267 52.3655 43.6507 51.8343 43.1467 51.2549C42.6427 50.6755 42.1627 50.0719 41.7547 49.42C41.3467 48.744 41.0107 48.068 40.7227 47.3438Z" fill="#A3A9F3"/>
<path d="M32.418 33.6289C32.706 34.0152 33.018 34.3773 33.354 34.6912C33.69 35.0292 34.05 35.3189 34.434 35.5845C35.202 36.1156 36.09 36.4778 37.002 36.5985C37.914 36.7192 38.874 36.5261 39.69 36.1156C40.506 35.7052 41.226 35.0051 41.586 34.1359C41.466 34.5946 41.202 35.0292 40.89 35.3913C40.578 35.7535 40.194 36.0673 39.762 36.2846C38.922 36.7433 37.914 36.9606 36.954 36.8399C35.994 36.7192 35.082 36.3088 34.314 35.7535C33.546 35.1499 32.898 34.4256 32.418 33.6289Z" fill="#A3A9F3"/>
<path d="M55.1704 51.6875C55.0504 51.9531 54.9304 52.1945 54.8104 52.4359C54.6904 52.6774 54.5944 52.9188 54.4984 53.1844L54.3784 53.0395C54.4744 53.0154 54.5944 53.0395 54.6904 53.0395C54.7864 53.0395 54.8824 53.0636 54.9784 53.0636C55.1704 53.0878 55.3624 53.1361 55.5544 53.1361C55.3624 53.2085 55.1704 53.2085 54.9784 53.2085C54.7864 53.2085 54.5944 53.2085 54.4264 53.2326L54.2344 53.2568L54.3064 53.0636C54.4024 52.7981 54.5224 52.5325 54.6664 52.3152C54.8104 52.1221 54.9784 51.8806 55.1704 51.6875Z" fill="#A3A9F3"/>
<path d="M73.2683 70.0663C71.6123 69.8007 69.9563 69.3903 68.3723 68.8833C66.2123 68.1831 64.1243 67.2657 62.1563 66.1551C60.7883 65.3825 59.3963 64.441 58.6763 63.0165C57.8603 61.3748 58.1003 59.4192 58.5563 57.6327C59.0123 55.8461 59.6363 54.0837 59.5643 52.2488C59.4443 49.1826 57.3083 46.5269 54.8843 44.6679C52.4363 42.8089 49.6283 41.5052 47.2043 39.5979C44.5883 37.5458 42.4763 34.8176 41.1563 31.7756C40.9643 31.341 40.7963 30.9306 40.6523 30.496C44.3243 29.8924 48.6683 30.5926 51.6683 32.8137C54.5003 34.89 56.4443 37.9562 58.2923 40.9499C59.4203 42.7606 60.5723 44.5713 61.7003 46.3821C62.5643 47.7824 63.4763 49.2309 63.6923 50.8726C63.9803 53.1904 62.8763 55.4357 62.1083 57.6327C61.6523 58.9122 61.3163 60.3608 61.9163 61.568C62.3483 62.413 63.1403 62.9683 63.9083 63.4994C67.0523 65.5998 70.1003 67.9176 73.2683 70.0663Z" fill="#7271FD"/>
<path opacity="0.5" d="M68.3488 68.885C66.1888 68.1849 64.1008 67.2674 62.1328 66.1569C60.7648 65.3843 59.3728 64.4427 58.6528 63.0183C57.8368 61.3766 58.0768 59.421 58.5328 57.6344C58.9888 55.8478 59.6128 54.0854 59.5408 52.2505C59.4208 49.1844 57.2848 46.5287 54.8608 44.6697C52.4128 42.8107 49.6048 41.5069 47.1808 39.5997C44.5648 37.5475 42.4528 34.8194 41.1328 31.7773C44.3008 34.5296 49.4128 34.6504 52.7248 37.1129C53.2528 37.5234 52.9168 38.3684 52.2688 38.2718L50.1808 38.0062C49.6288 37.9338 49.4128 38.6822 49.8928 38.9236L54.0928 41.1207C55.8448 42.0381 57.6208 42.9797 59.0608 44.3317C60.5008 45.6837 61.6048 47.5185 61.6288 49.5224C61.6288 50.2467 61.4848 51.0193 60.9328 51.478C60.4048 54.0854 60.1168 56.7653 60.6688 59.3727C61.2208 61.956 62.7088 64.4669 65.0128 65.6982C66.0928 66.2776 67.3408 66.6156 68.0368 67.702C68.2768 68.04 68.3968 68.4746 68.3488 68.885Z" fill="#7271FD"/>
<path d="M42.7422 32.5273C44.2302 34.2173 45.8622 35.7866 47.6142 37.1869C48.5022 37.8871 49.3902 38.5631 50.3262 39.1908C51.2622 39.8185 52.2222 40.3979 53.1822 40.9774C54.1422 41.5809 55.0782 42.1845 55.9662 42.8847C56.8542 43.5848 57.6942 44.3574 58.3662 45.2748C58.7022 45.7335 59.0142 46.2164 59.2542 46.7234C59.4942 47.2304 59.7102 47.7615 59.8302 48.3168C59.9502 48.8721 60.0222 49.4515 60.0222 50.0068C60.0222 50.5863 59.9262 51.1415 59.7342 51.6727C59.8782 51.1174 59.9502 50.5621 59.9502 50.0068C59.9502 49.4515 59.8542 48.8962 59.7102 48.341C59.5662 47.8098 59.3502 47.2787 59.1102 46.7717C58.8462 46.2647 58.5342 45.806 58.1982 45.3714C57.5022 44.5022 56.6862 43.7297 55.7982 43.0295C54.9102 42.3535 53.9742 41.7499 53.0142 41.1464C52.0542 40.5428 51.0942 39.9634 50.1582 39.3356C49.2222 38.7079 48.3342 38.0319 47.4462 37.3076C46.5822 36.5834 45.7422 35.8108 44.9502 35.0141C44.2062 34.2415 43.4382 33.3965 42.7422 32.5273Z" fill="#7B7AEA"/>
<path d="M44.6367 32.1172C45.2847 33.3968 46.1967 34.5073 47.2767 35.4489C48.3327 36.3905 49.5327 37.1872 50.7567 37.9115C51.9807 38.6599 53.2287 39.3359 54.4527 40.0844C55.0527 40.4706 55.6527 40.8569 56.2287 41.2915C56.8047 41.7261 57.3567 42.1848 57.8607 42.6918C57.3087 42.2331 56.7567 41.7744 56.1567 41.3881C55.5807 40.9776 54.9567 40.6155 54.3567 40.2534C53.1327 39.5291 51.8607 38.8531 50.6367 38.1288C49.4127 37.3803 48.2127 36.5836 47.1567 35.5938C46.6287 35.1109 46.1487 34.5798 45.7167 34.0003C45.2847 33.3968 44.9007 32.769 44.6367 32.1172Z" fill="#7B7AEA"/>
<path d="M60.7885 53.9414C60.4285 55.3176 60.3565 56.742 60.5485 58.1423C60.7645 59.5184 61.2205 60.8704 61.9645 62.0534C62.6845 63.2364 63.6925 64.2504 64.8445 65.0472C65.4205 65.4334 66.0445 65.7714 66.6925 66.0612C67.3405 66.3267 68.0125 66.544 68.7085 66.6889C68.0125 66.6164 67.3165 66.4233 66.6445 66.1819C65.9725 65.9404 65.3485 65.6024 64.7485 65.2162C63.5485 64.4436 62.5165 63.4054 61.7485 62.1983C61.0045 60.967 60.5245 59.5909 60.3565 58.1664C60.2845 57.4663 60.2605 56.742 60.3325 56.0418C60.4045 55.3176 60.5485 54.6174 60.7885 53.9414Z" fill="#7B7AEA"/>
<path d="M59.0859 58.8906C59.2539 59.4942 59.4939 60.0978 59.7579 60.6772C60.0459 61.2325 60.3579 61.7878 60.7419 62.2948C61.1019 62.8018 61.5339 63.2605 61.9899 63.6951L62.3499 64.0089L62.7099 64.2986L63.0939 64.5884C63.2139 64.6849 63.3579 64.7574 63.4779 64.8539C63.3339 64.7815 63.1899 64.7091 63.0459 64.6366L62.6379 64.3952L62.2539 64.1296L61.8699 63.8399C61.3659 63.4295 60.9339 62.9466 60.5499 62.4396C60.1659 61.9085 59.8539 61.3532 59.5899 60.7496C59.3499 60.1461 59.1579 59.5183 59.0859 58.8906Z" fill="#7B7AEA"/>
<path d="M20.7314 72.964C17.8274 76.3198 13.1234 77.9857 8.77937 77.2131C7.36337 76.9717 5.94737 76.4405 5.01137 75.33C4.98737 75.161 4.96337 74.992 4.96337 74.823C4.86737 72.964 5.87537 71.0808 7.02737 69.6081C8.27537 67.9905 9.93138 66.7834 11.6114 65.6487C13.2914 64.5139 15.0194 63.3792 16.4114 61.9306C17.9714 60.2889 19.1954 58.2126 19.7474 56.0156C19.1954 58.5506 19.5074 61.2546 20.6114 63.5965C20.6594 63.6931 20.7074 63.8138 20.7794 63.9104C21.5234 65.3831 22.5074 66.8075 22.6034 68.4492C22.7234 70.1151 21.8354 71.7085 20.7314 72.964Z" fill="#7271FD"/>
<path opacity="0.5" d="M20.7328 72.9677C17.8288 76.3235 13.1248 77.9894 8.78084 77.2168C7.36484 76.9754 5.94884 76.4442 5.01284 75.3337C4.98884 75.1647 4.96484 74.9957 4.96484 74.8267C5.39684 74.706 5.87684 74.7542 6.33284 74.8025C8.51684 74.9715 10.7488 75.0681 12.8368 74.4162C14.9248 73.7885 16.8688 72.3158 17.5648 70.2395C16.6288 70.1671 15.6688 70.0947 14.7328 70.0222C15.7648 69.2255 16.7728 68.4529 17.8048 67.6562C18.8368 66.8595 19.8688 66.0628 20.5168 64.9281C20.6128 64.7349 20.7088 64.3486 20.7808 63.9141C21.5248 65.3868 22.5088 66.8112 22.6048 68.4529C22.7248 70.1188 21.8368 71.7122 20.7328 72.9677Z" fill="#7271FD"/>
<path d="M20.0137 63.5742C20.1097 64.3951 20.0617 65.2159 19.8697 66.0368C19.7017 66.8335 19.3897 67.6302 19.0057 68.3545C18.2377 69.8272 17.0857 71.0827 15.7417 72.0484C14.3977 72.99 12.8617 73.666 11.2777 74.0764C9.69369 74.4868 8.06169 74.68 6.42969 74.7041C7.24569 74.6317 8.06169 74.5592 8.85369 74.4144C9.64569 74.2937 10.4617 74.1005 11.2297 73.8832C12.7897 73.4245 14.3017 72.7727 15.6217 71.8311C16.9417 70.9137 18.0697 69.6824 18.8617 68.2579C19.6537 66.8577 20.1097 65.2159 20.0137 63.5742Z" fill="#7B7AEA"/>
<path d="M20.5433 66.5664C20.5673 67.4356 20.4473 68.3047 20.2553 69.1738C20.0633 70.0188 19.7513 70.8638 19.3673 71.6364C18.9833 72.409 18.5033 73.1574 17.9273 73.8334L17.4953 74.3163L17.0392 74.775L16.5592 75.2096C16.3912 75.3544 16.2233 75.4751 16.0312 75.62C16.1992 75.4751 16.3433 75.3303 16.5112 75.1613L16.9673 74.7026L17.3992 74.2197L17.8073 73.7127C18.3353 73.0126 18.7913 72.2883 19.1753 71.5157C19.5593 70.7431 19.8712 69.9464 20.1112 69.1014C20.3032 68.2806 20.4713 67.4356 20.5433 66.5664Z" fill="#7B7AEA"/>
</g>
</svg>
