<svg width="126" height="126" viewBox="0 0 126 126" fill="none" xmlns="http://www.w3.org/2000/svg">
<path d="M76.0635 1.85731C67.237 -0.344359 57.9493 -0.658966 48.9118 1.29204C48.2134 1.44282 47.7695 2.13124 47.9202 2.82967C48.071 3.52811 48.7594 3.97207 49.4579 3.82129C58.1128 1.95287 67.0284 2.26094 75.5087 4.38642C95.7889 9.46935 112.67 24.7172 119.099 44.6351C121.585 52.3379 122.642 60.54 122.853 69.1359C122.871 69.8502 123.464 70.4151 124.178 70.3975C124.893 70.3799 125.458 69.7866 125.44 69.0723C125.226 60.3584 124.157 51.9453 121.609 43.9882C114.932 23.1357 97.2889 7.15178 76.0635 1.85731Z" fill="white"/>
<path d="M42.3463 5.77165C43.0351 5.58163 43.4394 4.86921 43.2494 4.18042C43.0594 3.49163 42.347 3.08729 41.6582 3.27731C32.2068 5.88465 18.9116 14.894 10.695 26.9297C10.6918 26.9344 10.6886 26.9391 10.6855 26.9438C3.47081 37.8164 -1.05179 51.4798 0.210904 64.7381C0.212106 64.7507 0.213494 64.7633 0.215067 64.7759C0.517683 67.1968 1.0257 69.6132 1.53432 72.0325C2.60557 77.1279 3.67946 82.2359 2.84242 87.425C2.72863 88.1304 3.20823 88.7945 3.91364 88.9083C4.61904 89.0221 5.28313 88.5425 5.39692 87.8371C6.27189 82.4128 5.18544 77.1219 4.09878 71.8299C3.59623 69.3826 3.09363 66.935 2.78497 64.4738C1.59737 51.9457 5.87501 38.8761 12.8368 28.3816C20.7409 16.8078 33.5399 8.20106 42.3463 5.77165Z" fill="white"/>
<path d="M59.3238 8.6622C75.5669 7.67031 91.8067 14.2993 102.713 26.9993C103.179 27.5414 103.117 28.3582 102.574 28.8237C102.032 29.2892 101.216 29.2272 100.75 28.6851C90.3785 16.6079 74.9249 10.2994 59.4736 11.2454C59.4681 11.2457 59.4626 11.246 59.4571 11.2463C39.9171 12.1918 21.6177 25.4475 14.8869 44.0219C14.6434 44.6937 13.9015 45.0409 13.2297 44.7975C12.558 44.5541 12.2107 43.8121 12.4542 43.1404C19.5449 23.5729 38.7603 9.66069 59.3238 8.6622Z" fill="white"/>
<path d="M106.655 32.6514C106.256 32.0583 105.452 31.9003 104.859 32.2987C104.266 32.6971 104.108 33.5009 104.506 34.094C110.553 43.0968 113.053 52.8935 114.041 64.5193C114.101 65.2312 114.728 65.7593 115.44 65.6988C116.152 65.6383 116.68 65.0121 116.619 64.3001C115.609 52.4202 113.031 42.1462 106.655 32.6514Z" fill="white"/>
<path d="M115.754 69.793C116.467 69.7484 117.082 70.2904 117.126 71.0035C117.614 78.8049 117.618 87.6314 116.755 94.1541C116.661 94.8624 116.011 95.3607 115.303 95.267C114.595 95.1733 114.096 94.523 114.19 93.8147C115.022 87.5279 115.026 78.8886 114.544 71.1649C114.499 70.4518 115.041 69.8375 115.754 69.793Z" fill="white"/>
<path d="M12.9332 50.2883C13.1009 49.5937 12.6738 48.8947 11.9792 48.727C11.2846 48.5593 10.5856 48.9864 10.4179 49.681C9.46833 53.6139 8.97537 57.6542 8.95584 61.6982C8.93571 65.8663 9.7129 69.9349 10.4904 74.0051C11.1264 77.3347 11.7626 80.6653 11.9627 84.0523C12.2256 88.5014 11.2898 92.957 9.67265 97.1977C9.41806 97.8653 9.75289 98.6129 10.4205 98.8675C11.0881 99.1221 11.8358 98.7873 12.0903 98.1197C13.7997 93.6372 14.8358 88.8087 14.5458 83.8996C14.347 80.5358 13.7108 77.2246 13.0749 73.9146C12.299 69.8758 11.5234 65.8389 11.5433 61.7107C11.5619 57.8681 12.0304 54.0273 12.9332 50.2883Z" fill="white"/>
<path d="M46.881 21.5382C47.1472 22.2012 46.8256 22.9546 46.1625 23.2209C32.7498 28.6072 22.6777 40.7623 20.623 55.0958C19.7645 61.0841 20.692 67.0159 21.6191 72.946C22.1413 76.2857 22.6634 79.6248 22.8664 82.9732C23.3065 90.2338 22.4795 98.2089 17.7543 105.465C17.3643 106.064 16.5629 106.233 15.9641 105.843C15.3653 105.453 15.196 104.652 15.586 104.053C19.8911 97.442 20.706 90.0987 20.2836 83.1298C20.0776 79.7323 19.5588 76.3545 19.0403 72.9789C18.1101 66.9224 17.1808 60.8727 18.0616 54.7286C20.2555 39.4243 30.9825 26.5286 45.1983 20.8197C45.8613 20.5535 46.6147 20.8751 46.881 21.5382Z" fill="white"/>
<path d="M92.2995 28.904C81.7182 18.9933 66.3819 15.5343 52.4439 18.5915C51.7459 18.7446 51.3042 19.4345 51.4573 20.1324C51.6104 20.8303 52.3003 21.272 52.9982 21.1189C66.1966 18.224 80.6375 21.5263 90.5307 30.7925C98.8694 38.6026 103.712 49.9669 104.979 62.3658C105.052 63.0766 105.687 63.594 106.398 63.5213C107.109 63.4486 107.626 62.8135 107.553 62.1027C106.237 49.228 101.19 37.2313 92.2995 28.904Z" fill="white"/>
<path d="M107.283 68.2641C107.993 68.1911 108.629 68.7081 108.702 69.4189C109.93 81.3823 109.401 94.3038 107.546 106.804C107.441 107.511 106.783 107.999 106.076 107.894C105.37 107.789 104.882 107.131 104.986 106.424C106.816 94.0978 107.331 81.3958 106.128 69.6833C106.055 68.9725 106.572 68.3371 107.283 68.2641Z" fill="white"/>
<path d="M56.2563 64.3472H55.3384C52.3709 64.3472 50.8872 64.3472 50.2547 63.3688C49.6223 62.3906 50.2249 61.0276 51.4301 58.3017L55.0534 50.1065C56.1491 47.628 56.697 46.3888 57.7599 45.6944C58.8228 45 60.1718 45 62.87 45H67.0488C70.3264 45 71.9652 45 72.5832 46.0707C73.2014 47.1414 72.3884 48.5718 70.7622 51.4325L68.6184 55.2038C67.81 56.6259 67.4058 57.337 67.4114 57.919C67.4188 58.6755 67.821 59.3724 68.4708 59.754C68.9708 60.0478 69.7854 60.0478 71.4148 60.0478C73.4746 60.0478 74.5046 60.0478 75.041 60.4044C75.7378 60.8676 76.1026 61.6964 75.9748 62.5264C75.8764 63.1652 75.1836 63.9312 73.798 65.4634L62.7278 77.7046C60.5534 80.109 59.4662 81.3112 58.7361 80.9308C58.0061 80.5502 58.3567 78.9644 59.0578 75.7924L60.4314 69.5792C60.9652 67.164 61.2322 65.9564 60.5902 65.1518C59.9482 64.3472 58.7175 64.3472 56.2563 64.3472Z" fill="white"/>
</svg>
