<svg width="22" height="19" viewBox="0 0 22 19" fill="none" xmlns="http://www.w3.org/2000/svg">
<path d="M1 7.13344C1 11.9964 5.01943 14.5877 7.96173 16.9072C9 17.7257 10 18.4963 11 18.4963C12 18.4963 13 17.7257 14.0383 16.9072C16.9806 14.5877 21 11.9964 21 7.13344C21 2.2705 15.4998 -1.1782 11 3.49697C6.50016 -1.1782 1 2.2705 1 7.13344Z" fill="#CE3932"/>
<path d="M7.96173 16.9072L7.65219 17.2999L7.96173 16.9072ZM11 3.49697L10.6398 3.8437C10.734 3.94163 10.8641 3.99697 11 3.99697C11.1359 3.99697 11.266 3.94163 11.3602 3.8437L11 3.49697ZM14.0383 16.9072L13.7287 16.5146L14.0383 16.9072ZM8.27127 16.5146C6.77045 15.3314 5.08543 14.1443 3.75136 12.6421C2.43443 11.1592 1.5 9.40886 1.5 7.13344H0.5C0.5 9.72095 1.57528 11.6978 3.00365 13.3061C4.41487 14.8952 6.21071 16.1635 7.65219 17.2999L8.27127 16.5146ZM1.5 7.13344C1.5 4.88903 2.76859 2.99393 4.52043 2.19316C6.24074 1.4068 8.5178 1.63907 10.6398 3.8437L11.3602 3.15024C8.98236 0.679701 6.25942 0.298739 4.1047 1.28367C1.98149 2.25419 0.5 4.5149 0.5 7.13344H1.5ZM7.65219 17.2999C8.16673 17.7055 8.70317 18.125 9.24295 18.4404C9.78257 18.7557 10.3731 18.9963 11 18.9963V17.9963C10.6269 17.9963 10.2174 17.8516 9.74748 17.577C9.27769 17.3025 8.79501 16.9274 8.27127 16.5146L7.65219 17.2999ZM14.3478 17.2999C15.7893 16.1635 17.5851 14.8952 18.9964 13.3061C20.4247 11.6978 21.5 9.72095 21.5 7.13344H20.5C20.5 9.40886 19.5656 11.1592 18.2486 12.6421C16.9146 14.1443 15.2295 15.3314 13.7287 16.5146L14.3478 17.2999ZM21.5 7.13344C21.5 4.5149 20.0185 2.25419 17.8953 1.28367C15.7406 0.298739 13.0176 0.679702 10.6398 3.15024L11.3602 3.8437C13.4822 1.63907 15.7593 1.4068 17.4796 2.19316C19.2314 2.99393 20.5 4.88903 20.5 7.13344H21.5ZM13.7287 16.5146C13.205 16.9274 12.7223 17.3025 12.2525 17.577C11.7826 17.8516 11.3731 17.9963 11 17.9963V18.9963C11.6269 18.9963 12.2174 18.7557 12.757 18.4404C13.2968 18.125 13.8333 17.7055 14.3478 17.2999L13.7287 16.5146Z" fill="white"/>
</svg>
