<svg width="22" height="19" viewBox="0 0 22 19" fill="none" xmlns="http://www.w3.org/2000/svg">
<path d="M0.523438 7.13344C0.523438 11.9964 4.54286 14.5877 7.48517 16.9072C8.52344 17.7257 9.52344 18.4963 10.5234 18.4963C11.5234 18.4963 12.5234 17.7257 13.5617 16.9072C16.504 14.5877 20.5234 11.9964 20.5234 7.13344C20.5234 2.2705 15.0233 -1.1782 10.5234 3.49697C6.0236 -1.1782 0.523438 2.2705 0.523438 7.13344Z" fill="black" fill-opacity="0.5"/>
<path d="M7.48517 16.9072L7.17563 17.2999L7.48517 16.9072ZM10.5234 3.49697L10.1632 3.8437C10.2575 3.94163 10.3875 3.99697 10.5234 3.99697C10.6594 3.99697 10.7894 3.94163 10.8837 3.8437L10.5234 3.49697ZM13.5617 16.9072L13.2522 16.5146L13.5617 16.9072ZM7.79471 16.5146C6.29389 15.3314 4.60886 14.1443 3.2748 12.6421C1.95787 11.1592 1.02344 9.40886 1.02344 7.13344H0.0234375C0.0234375 9.72095 1.09872 11.6978 2.52708 13.3061C3.9383 14.8952 5.73414 16.1635 7.17563 17.2999L7.79471 16.5146ZM1.02344 7.13344C1.02344 4.88903 2.29203 2.99393 4.04386 2.19316C5.76418 1.4068 8.04124 1.63907 10.1632 3.8437L10.8837 3.15024C8.5058 0.679701 5.78286 0.298739 3.62813 1.28367C1.50493 2.25419 0.0234375 4.5149 0.0234375 7.13344H1.02344ZM7.17563 17.2999C7.69016 17.7055 8.22661 18.125 8.76639 18.4404C9.30601 18.7557 9.8965 18.9963 10.5234 18.9963V17.9963C10.1504 17.9963 9.74087 17.8516 9.27092 17.577C8.80113 17.3025 8.31844 16.9274 7.79471 16.5146L7.17563 17.2999ZM13.8712 17.2999C15.3127 16.1635 17.1086 14.8952 18.5198 13.3061C19.9482 11.6978 21.0234 9.72095 21.0234 7.13344H20.0234C20.0234 9.40886 19.089 11.1592 17.7721 12.6421C16.438 14.1443 14.753 15.3314 13.2522 16.5146L13.8712 17.2999ZM21.0234 7.13344C21.0234 4.5149 19.542 2.25419 17.4187 1.28367C15.264 0.298739 12.5411 0.679702 10.1632 3.15024L10.8837 3.8437C13.0056 1.63907 15.2827 1.4068 17.003 2.19316C18.7548 2.99393 20.0234 4.88903 20.0234 7.13344H21.0234ZM13.2522 16.5146C12.7284 16.9274 12.2457 17.3025 11.776 17.577C11.306 17.8516 10.8965 17.9963 10.5234 17.9963V18.9963C11.1504 18.9963 11.7409 18.7557 12.2805 18.4404C12.8203 18.125 13.3567 17.7055 13.8712 17.2999L13.2522 16.5146Z" fill="white"/>
</svg>
